<?xml version="1.0" encoding="UTF-8"?><svg version="1.1" xmlns="http://www.w3.org/2000/svg" xmlns:xlink="http://www.w3.org/1999/xlink" viewBox="0 0 800 800" width="800" height="800" x="0px" y="0px">
    
    
    <!-- ITEM 0 -->
    <g>
        <defs>
            <clipPath id="clip-path-id-viewbox-item-0">
                <rect x="0.0" y="0.0" width="162.212" height="214.7"/>
            </clipPath>
        </defs>
        <g transform="translate(81.0 401.0) rotate(0.0 81.5 107.5) scale(1.0048578403570636 1.0013972985561248)">
            <g clip-path="url(#clip-path-id-viewbox-item-0)" transform="translate(-0.0 -0.0)">
                

<g>
	<path d="M43.5,7.8c-2.9,0-5.2,2.3-5.2,5.2c0,13.9,0,51.2,0,60.6c0,1.4,0.5,2.7,1.5,3.7c4.2,4.2,15.9,15.9,15.9,15.9   h76.6c0,0,11.7-11.7,15.9-15.9c1-1,1.5-2.3,1.5-3.7c0-9.4,0-46.7,0-60.6c0-2.9-2.3-5.2-5.2-5.2C125.9,7.8,62.2,7.8,43.5,7.8   L43.5,7.8z" style="fill:#00E6B3;"/>
	<path d="M139.1,99.3c0-3.3-2.7-6.1-6.1-6.1c-16.3,0-61.1,0-77.4,0c-3.3,0-6.1,2.7-6.1,6.1l0,0H139.1L139.1,99.3z" style="fill:#142664;"/>
	<path d="M55.9,214.6V99.3h87.3c2.2,0,4,1.8,4,4c0,17.8,0,89.7,0,107.4c0,2.2-1.8,4-4,4H55.9V214.6z" style="fill:#142664;"/>
	<path d="M4,214.6c-2.2,0-4-1.8-4-4c0-13.4,0-56.3,0-65.3c0-1.1,0.4-2.1,1.2-2.8c6.3-6.3,35.8-35.8,42.1-42.1   c0.7-0.7,1.8-1.2,2.8-1.2c11.1,0,74.2,0,74.2,0s-35,35-42.9,42.9c-1,1-1.6,2.4-1.6,3.8c0,12,0,68.7,0,68.7H4z" style="fill:#FF2E93;"/>
	<circle cx="128.4" cy="126.9" r="3.2" style="fill:#00E6B3;"/>
	<path d="M140.3,131.9v-19c0-3.4-2.7-6.1-6.1-6.1c-2.5,0-5.5,0-7.4,0c-1.6,0-3.2,0.6-4.3,1.8   c-2.9,2.9-10.3,10.3-13.1,13.1c-1.1,1.1-1.8,2.7-1.8,4.3c0,1.5,0,3.9,0,5.9c0,1.6,0.6,3.2,1.8,4.3c1.1,1.1,2.7,1.8,4.3,1.8   c5.4,0,15.1,0,20.5,0c1.6,0,3.2-0.6,4.3-1.8C139.7,135.1,140.3,133.6,140.3,131.9L140.3,131.9z M136.1,131.9c0,0.5-0.2,1-0.5,1.3   s-0.8,0.5-1.3,0.5c-5.4,0-15.1,0-20.5,0c-0.5,0-1-0.2-1.3-0.5s-0.5-0.8-0.5-1.3c0-2,0-4.4,0-5.9c0-0.5,0.2-1,0.5-1.3   c2.9-2.9,10.3-10.3,13.1-13.1c0.3-0.3,0.8-0.5,1.3-0.5c1.8,0,4.9,0,7.4,0c1,0,1.9,0.8,1.9,1.9L136.1,131.9L136.1,131.9z" style="fill:#00E6B3;"/>
	<path d="M47.6,197.1H3.8c-1.2,0-2.1-0.9-2.1-2.1c0-1.2,0.9-2.1,2.1-2.1h45.9c1.2,0,2.1,0.9,2.1,2.1v17.6   c0,1.2-0.9,2.1-2.1,2.1c-1.2,0-2.1-0.9-2.1-2.1V197.1z M59,158.9v-6.8l-18.2-18.2c-0.8-0.8-0.8-2.2,0-3s2.2-0.8,3,0l18.8,18.8   c0.4,0.4,0.6,0.9,0.6,1.5v22.7L77.3,188c0.8,0.8,0.8,2.2,0,3s-2.2,0.8-3,0l-14.6-14.8c-0.4-0.4-0.6-0.9-0.6-1.5v-11.6h-8.4l-10,10   c-0.4,0.4-0.9,0.6-1.5,0.6H3.8c-1.2,0-2.1-0.9-2.1-2.1s0.9-2.1,2.1-2.1h34.4l10-10c0.4-0.4,0.9-0.6,1.5-0.6L59,158.9L59,158.9z" style="fill:#142664;"/>
	<g>
		<path d="M23.8,134.5c-1.2,0-2.2-0.7-2.7-1.8s-0.2-2.3,0.6-3.2c7.3-7.3,20.3-20.3,23.7-23.7c0.5-0.5,1.3-0.9,2.1-0.9    c6.6,0,38.3,0,52.6,0.1c1.2,0,2.2,0.7,2.7,1.8s0.2,2.3-0.6,3.2c-7.3,7.3-20.2,20.2-23.7,23.7c-0.5,0.5-1.3,0.9-2.1,0.9H23.8V134.5    z" style="fill:#FFFFFF;"/>
		<path d="M42.3,130c-0.5,0-1-0.3-1.2-0.8s-0.1-1,0.3-1.4c3.8-3.8,11.6-11.6,13.4-13.4c0.2-0.2,0.6-0.4,0.9-0.4    c2.7,0,15.4,0,21.3,0c0.5,0,1,0.3,1.2,0.8s0.1,1-0.3,1.4c-3.8,3.8-11.6,11.6-13.3,13.3c-0.2,0.2-0.6,0.4-0.9,0.4    C60.9,130,48.2,130,42.3,130L42.3,130z" style="fill:#142664;"/>
		<path d="M75.2,130.3l12-12c0.8-0.8,0.8-2.2,0-3s-2.2-0.8-3,0l-12,12c-0.8,0.8-0.8,2.2,0,3S74.3,131.1,75.2,130.3z" style="fill:#142664;"/>
		<path d="M87.2,112.2c-0.5,0-1-0.3-1.2-0.8s-0.1-1,0.3-1.4c0.8-0.8,1.6-1.6,2.1-2.1c0.2-0.2,0.6-0.4,0.9-0.4    c1.1,0,3.8,0,5.9,0c0.5,0,1,0.3,1.2,0.8s0.1,1-0.3,1.4c-0.8,0.8-1.6,1.6-2.1,2.1c-0.2,0.2-0.6,0.4-0.9,0.4    C92,112.2,89.4,112.2,87.2,112.2z" style="fill:#00E6B3;"/>
		<path d="M73.9,112.2c-0.5,0-1-0.3-1.2-0.8s-0.1-1,0.3-1.4c0.8-0.8,1.6-1.6,2.1-2.1c0.2-0.2,0.6-0.4,0.9-0.4    c1.1,0,3.8,0,5.9,0c0.5,0,1,0.3,1.2,0.8s0.1,1-0.3,1.4c-0.8,0.8-1.6,1.6-2.1,2.1c-0.2,0.2-0.6,0.4-0.9,0.4    C78.7,112.2,76.1,112.2,73.9,112.2L73.9,112.2z" style="fill:#FF2E93;"/>
		<path d="M60.8,112.2c-0.5,0-1-0.3-1.2-0.8s-0.1-1,0.3-1.4c0.8-0.8,1.6-1.6,2.1-2.1c0.2-0.2,0.6-0.4,0.9-0.4    c1.1,0,3.8,0,5.9,0c0.5,0,1,0.3,1.2,0.8s0.1,1-0.3,1.4c-0.8,0.8-1.6,1.6-2.1,2.1c-0.2,0.2-0.6,0.4-0.9,0.4    C65.7,112.2,63,112.2,60.8,112.2z" style="fill:#142664;"/>
		<path d="M41.6,118.9c1.8,0,2.4,1,1.2,2.1c-1.2,1.2-3.6,2.1-5.5,2.1s-2.4-0.9-1.2-2.1    C37.3,119.9,39.7,118.9,41.6,118.9z" style="fill:#142664;"/>
		<path d="M47.5,113.1c1.8,0,2.4,0.9,1.2,2.1c-1.2,1.2-3.6,2.1-5.5,2.1c-1.8,0-2.4-0.9-1.2-2.1    C43.2,114,45.6,113.1,47.5,113.1z" style="fill:#142664;"/>
		<path d="M53.1,107.4c1.8,0,2.4,0.9,1.2,2.1c-1.2,1.2-3.6,2.1-5.5,2.1s-2.4-0.9-1.2-2.1    C48.8,108.4,51.2,107.4,53.1,107.4z" style="fill:#00E6B3;"/>
	</g>
	<g>
		<path d="M90.4,152.9c0-0.5-0.2-1-0.6-1.3c-0.4-0.4-0.8-0.6-1.3-0.6c-1.3,0-3.1,0-4.5,0c-0.5,0-1,0.2-1.3,0.6    c-0.4,0.4-0.6,0.8-0.6,1.3c0,1.7,0,4.3,0,6c0,0.5,0.2,1,0.6,1.3c0.4,0.4,0.8,0.6,1.3,0.6c1.3,0,3.1,0,4.5,0c0.5,0,1-0.2,1.3-0.6    c0.4-0.4,0.6-0.8,0.6-1.3C90.4,157.2,90.4,154.6,90.4,152.9z" style="fill:#FFFFFF;"/>
		<path d="M96.1,145.1c0-0.5-0.2-1-0.5-1.3s-0.8-0.5-1.3-0.5l0,0c-0.5,0-1,0.2-1.3,0.5s-0.5,0.8-0.5,1.3    c0,1.7,0,4.4,0,6.1c0,0.5,0.2,1,0.5,1.3s0.8,0.5,1.3,0.5l0,0c0.5,0,1-0.2,1.3-0.5s0.5-0.8,0.5-1.3    C96.1,149.4,96.1,146.8,96.1,145.1z" style="fill:#FFFFFF;"/>
		<path d="M132.8,152.9c0-0.5-0.2-1-0.5-1.3s-0.8-0.5-1.3-0.5l0,0c-0.5,0-1,0.2-1.3,0.5s-0.5,0.8-0.5,1.3    c0,1.7,0,4.4,0,6.1c0,0.5,0.2,1,0.5,1.3s0.8,0.5,1.3,0.5l0,0c0.5,0,1-0.2,1.3-0.5s0.5-0.8,0.5-1.3    C132.8,157.2,132.8,154.6,132.8,152.9z" style="fill:#FFFFFF;"/>
		<path d="M140.4,152.9c0-0.5-0.2-1-0.6-1.3c-0.4-0.4-0.8-0.6-1.3-0.6c-0.6,0-1.2,0-1.8,0c-0.5,0-1,0.2-1.3,0.6    c-0.4,0.4-0.6,0.8-0.6,1.3c0,1.7,0,4.3,0,6c0,0.5,0.2,1,0.6,1.3c0.4,0.4,0.8,0.6,1.3,0.6c0.6,0,1.2,0,1.8,0c0.5,0,1-0.2,1.3-0.6    c0.4-0.4,0.6-0.8,0.6-1.3C140.4,157.2,140.4,154.6,140.4,152.9z" style="fill:#FFFFFF;"/>
		<path d="M127.1,145.1c0-0.5-0.2-1-0.6-1.3c-0.4-0.4-0.8-0.6-1.3-0.6c-1.3,0-3,0-4.3,0c-0.5,0-1,0.2-1.3,0.6    c-0.4,0.4-0.6,0.8-0.6,1.3c0,1.7,0,4.3,0,6c0,0.5,0.2,1,0.6,1.3c0.4,0.4,0.8,0.6,1.3,0.6c1.3,0,3,0,4.3,0c0.5,0,1-0.2,1.3-0.6    c0.4-0.4,0.6-0.8,0.6-1.3C127.1,149.4,127.1,146.9,127.1,145.1z" style="fill:#FFFFFF;"/>
		<path d="M117,152.9c0-0.5-0.2-1-0.6-1.3c-0.4-0.4-0.8-0.6-1.3-0.6c-3.6,0-11.5,0-15.1,0c-0.5,0-1,0.2-1.3,0.6    c-0.4,0.4-0.6,0.8-0.6,1.3c0,1.7,0,4.3,0,6c0,0.5,0.2,1,0.6,1.3c0.4,0.4,0.8,0.6,1.3,0.6c3.6,0,11.5,0,15.1,0c0.5,0,1-0.2,1.3-0.6    c0.4-0.4,0.6-0.8,0.6-1.3C117,157.2,117,154.6,117,152.9z" style="fill:#FFFFFF;"/>
	</g>
	<path d="M93.2,187.3l19-19c0.4-0.4,0.9-0.6,1.5-0.6h30.7c1.2,0,2.1,0.9,2.1,2.1s-0.9,2.1-2.1,2.1h-29.8l-18.3,18.3   v22.2c0,1.2-0.9,2.1-2.1,2.1c-1.2,0-2.1-0.9-2.1-2.1v-20.9H78.2c-1.2,0-2.1-0.9-2.1-2.1c0-1.2,0.9-2.1,2.1-2.1H93.2L93.2,187.3z" style="fill:#00E6B3;"/>
	<path d="M150.1,98.7c0,0,1.3-0.8,3.1-1.9c0.9-0.6,2-1.3,3-2.1c0.6-0.4,1.1-0.9,1.7-1.4c2.1-1.8,3.7-3.5,3.7-3.5   c0.7-0.5,0.8-1.5,0.3-2.2s-1.5-0.8-2.2-0.3c0,0-2,1.2-4.3,2.7c-0.6,0.4-1.2,0.8-1.8,1.3c-1,0.8-1.9,1.6-2.8,2.4   c-1.6,1.4-2.7,2.5-2.7,2.5c-0.7,0.5-0.8,1.5-0.3,2.2C148.4,99.1,149.4,99.2,150.1,98.7L150.1,98.7z" style="fill:#00E6B3;"/>
	<path d="M153.3,104.4c0,0,0.7,0,1.7-0.2c0.5-0.1,1.1-0.2,1.6-0.4c0.3-0.1,0.6-0.3,0.9-0.4c1.2-0.6,2.1-1.2,2.1-1.2   c0.8-0.3,1.2-1.2,0.9-2s-1.2-1.2-2-0.9c0,0-1.1,0.1-2.4,0.4c-0.3,0.1-0.7,0.1-1,0.3c-0.6,0.2-1.1,0.5-1.5,0.7   c-0.9,0.5-1.5,0.9-1.5,0.9c-0.8,0.3-1.2,1.2-0.9,2S152.5,104.7,153.3,104.4z" style="fill:#00E6B3;"/>
	<path d="M142.7,94.7c0,0,9.4-9.4,13.1-13.1c1.4-1.4,2.1-3.2,2.1-5.2V7.3c0-1.9-0.8-3.8-2.1-5.2   c-1.4-1.4-3.2-2.1-5.2-2.1H37.4c-1.9,0-3.8,0.8-5.2,2.1c-1.4,1.4-2.1,3.2-2.1,5.2c0,15.2,0,58.9,0,69.1c0,1.9,0.8,3.8,2.1,5.2   c3.8,3.8,13.1,13.1,13.1,13.1c0.8,0.8,2.2,0.8,3,0s0.8-2.2,0-3c0,0-9.4-9.4-13.1-13.1c-0.6-0.6-0.9-1.4-0.9-2.2   c0-10.2,0-53.9,0-69.1c0-0.8,0.3-1.6,0.9-2.2s1.4-0.9,2.2-0.9c20.2,0,93.1,0,113.3,0c0.8,0,1.6,0.3,2.2,0.9   c0.6,0.6,0.9,1.4,0.9,2.2c0,15.2,0,58.9,0,69.1c0,0.8-0.3,1.6-0.9,2.2c-3.8,3.8-13.1,13.1-13.1,13.1c-0.8,0.8-0.8,2.2,0,3   S141.9,95.5,142.7,94.7z" style="fill:#00E6B3;"/>
</g>

            </g>
        </g>
    </g>
    
    <!-- ITEM 1 -->
    <g>
        <defs>
            <clipPath id="clip-path-id-viewbox-item-1">
                <rect x="0.0" y="0.0" width="79.77" height="143.809"/>
            </clipPath>
        </defs>
        <g transform="translate(67.0 473.0) rotate(0.0 39.5 72.0) scale(0.9903472483389746 1.0013281505329987)">
            <g clip-path="url(#clip-path-id-viewbox-item-1)" transform="translate(-0.0 -0.0)">
                

<g>
	<path d="M18.145,14.509h25.8c0,0,0,10.1,0,17.1c0,3.5-2.9,6.4-6.4,6.4h-2.1v0.8c0,1.1-0.9,1.9-1.9,1.9   c-3.3,0-10.1,0-13.4,0c-1.1,0-1.9-0.9-1.9-1.9C18.145,32.709,18.145,14.509,18.145,14.509L18.145,14.509z" style="fill:#FF2E93;"/>
	<path d="M8.645,142.409c0,0.4,0.2,0.8,0.4,1c0.3,0.3,0.6,0.4,1,0.4c3.2,0,10.8,0,13.5,0c0.6,0,1.1-0.4,1.1-1   c-0.1-1.1-0.5-3.1-2.6-5.1c-0.5-0.5-1.1-0.7-1.8-0.7c-2.1,0-7.1,0-9.9,0c-1,0-1.9,0.8-1.9,1.9   C8.645,139.909,8.645,141.309,8.645,142.409L8.645,142.409z" style="fill:#00E6B3;"/>
	<path d="M33.745,142.409c0,0.4,0.2,0.8,0.4,1c0.3,0.3,0.6,0.4,1,0.4c3.2,0,10.8,0,13.5,0c0.6,0,1.1-0.4,1.1-1   c-0.1-1.1-0.5-3.1-2.6-5.1c-0.5-0.5-1.1-0.7-1.8-0.7c-2.1,0-7.1,0-9.9,0c-1,0-1.9,0.8-1.9,1.9   C33.745,139.909,33.745,141.309,33.745,142.409L33.745,142.409z" style="fill:#00E6B3;"/>
	<path d="M48.145,85.509c0,0-1,39.9-1.2,49.4c0,1.1-0.9,2-2.1,2c-2.6,0-7.2,0-9.8,0c-1.1,0-2-0.9-2.1-2   c-0.3-7.3-1.3-32.1-1.3-32.1c0-0.2,0-0.4,0-0.6v-0.1c-0.3-2.8-8.2-2.7-8.4,0v0.1c0,0.1,0,0.3,0,0.4l0,0l-1.5,34.2h-13.7l-1-51.3   H48.145z" style="fill:#142664;"/>
	<path d="M1.145,46.809c0.2-0.4,0.5-0.9,1-1.4c8.7-8.7,42.6-8.8,49-0.1v0.1c4.7,7.8,8.2,17.4,15.4,9.1   c4.5-5.1,11.9,1.9,8.3,6.9c-3.9,5.4-17,15.5-26.3,8.6l-0.5,19.1c0,1.6-1.3,2.8-2.9,2.8c-7.5,0-28,0-35.5,0c-1.6,0-2.9-1.3-2.9-2.8   l-0.5-20.5c-1.6-1.6-3-3.8-4.2-6.7C2.245,61.809-1.955,52.009,1.145,46.809L1.145,46.809z" style="fill:#00E6B3;"/>
	<path d="M47.745,69.009c0,0-1-0.8-2.3-2.2c-0.6-0.7-1.3-1.5-2-2.5c-0.4-0.5-0.7-1-1.1-1.5c-0.8-1.2-1.6-2.4-2.1-4   c-0.2-0.8-1.1-1.3-1.9-1.1s-1.3,1.1-1.1,1.9c0.3,2,0.9,3.7,1.6,5.2c0.4,0.7,0.8,1.4,1.2,2c0.9,1.2,1.9,2.1,2.8,2.8   c1.9,1.5,3.4,2.1,3.4,2.1c0.8,0.4,1.7,0.1,2.1-0.7C48.845,70.409,48.545,69.409,47.745,69.009L47.745,69.009z" style="fill:#142664;"/>
	<path d="M70.245,50.109c1.5-1.7,4.6-5.5,6.1-4.8c4.3,2.1,5.2,7.6-1.1,15.6c-5,6.4-7.6-7.3-7.6-7.3l0,0   c-0.6-2.4,0-4,0.9-4.6C69.245,48.509,70.045,48.809,70.245,50.109L70.245,50.109z" style="fill:#FF2E93;"/>
	<path d="M23.145,7.009c4.2,0.9,5.2-2.2,9.2-3.1l0.4-0.1c0.3-0.1,0.7-0.1,1.1-0.1c0.6,0,1.3,0.1,1.8,0.3   c0.5,0.2,1.1,0,1.5-0.4c1.3-1.6,4.4-3.5,6.6-3.6c6-0.2,8.6,3.1,8.6,8.2c0,4-5.7,8.4-9.7,8.4c-0.2,0-0.4,0-0.6,0   c-4,0.1-4.4,4.8-4.4,7.2c0,2.6-3.3,2.5-3.3,0s-3.3-3.6-3.3,0s-1.6,9.4-9.1,9.5c-9.1,0.1-9.9-14.1-8.5-16.7l0,0   c0.3-0.7,0.8-1.4,1.4-1.9c0.5-0.4,0.8-1.1,0.7-1.8l0,0C15.345,10.009,18.345,6.309,23.145,7.009L23.145,7.009L23.145,7.009z" style="fill:#142664;"/>
	<path d="M6.745,64.809c0,0,0.2-0.6,0.3-1.4c0.1-0.4,0.1-0.9,0.1-1.4c0-0.3-0.1-0.6-0.1-0.8c-0.2-1.1-0.5-1.9-0.5-1.9   c0-0.9-0.8-1.5-1.6-1.5c-0.9,0-1.5,0.8-1.5,1.6c0,0-0.2,0.9-0.4,2c0,0.3-0.1,0.6-0.1,0.8c0,0.5,0.1,1,0.2,1.4   c0.2,0.8,0.4,1.4,0.4,1.4c0,0.9,0.8,1.5,1.6,1.5C6.045,66.409,6.745,65.609,6.745,64.809z" style="fill:#142664;"/>
</g>

            </g>
        </g>
    </g>
    
    <!-- ITEM 2 -->
    <g>
        <defs>
            <clipPath id="clip-path-id-viewbox-item-2">
                <rect x="0.0" y="0.0" width="79.4" height="63.1"/>
            </clipPath>
        </defs>
        <g transform="translate(126.0 414.0) rotate(0.0 19.5 15.5) scale(0.49118387909319894 0.491283676703645)">
            <g clip-path="url(#clip-path-id-viewbox-item-2)" transform="translate(-0.0 -0.0)">
                

<path d="M79.4,10c0-5.5-4.5-10-10-10C54.1,0,25.2,0,10,0C4.5,0,0,4.5,0,10c0,11.8,0,31.3,0,43.1c0,5.5,4.5,10,10,10  c15.3,0,44.2,0,59.4,0c5.5,0,10-4.5,10-10C79.4,41.2,79.4,21.8,79.4,10L79.4,10z" style="fill:#ffffff;"/>

            </g>
        </g>
    </g>
    
    <!-- ITEM 3 -->
    <g>
        <defs>
            <clipPath id="clip-path-id-viewbox-item-3">
                <rect x="0.0" y="0.0" width="77.5" height="42.1"/>
            </clipPath>
        </defs>
        <g transform="translate(129.0 429.0) rotate(0.0 10.0 5.5) scale(0.25806451612903225 0.26128266033254155)">
            <g clip-path="url(#clip-path-id-viewbox-item-3)" transform="translate(-0.0 -0.0)">
                

<path d="M77.5,8.3c0-2.2-0.9-4.3-2.4-5.9C73.5,0.8,71.4,0,69.2,0c-14.9,0-46,0-60.9,0C6.1,0,4,0.9,2.4,2.4  C0.8,4,0,6.1,0,8.3c0,7.4,0,18.1,0,25.5c0,2.2,0.9,4.3,2.4,5.9c1.6,1.6,3.7,2.4,5.9,2.4c14.9,0,46,0,60.9,0c2.2,0,4.3-0.9,5.9-2.4  c1.6-1.6,2.4-3.7,2.4-5.9C77.5,26.4,77.5,15.7,77.5,8.3z" style="fill:#00E6B3;"/>

            </g>
        </g>
    </g>
    
    <!-- ITEM 4 -->
    <g>
        <defs>
            <clipPath id="clip-path-id-viewbox-item-4">
                <rect x="0.0" y="0.0" width="107.7" height="70.7"/>
            </clipPath>
        </defs>
        <g transform="translate(148.0 424.0) rotate(-89.99999999999999 21.5 31.0) scale(0.39925719591457753 0.8769448373408769)">
            <g clip-path="url(#clip-path-id-viewbox-item-4)" transform="translate(-0.0 -0.0)">
                

<path d="M48.9,37.1v28.4c0,1.4-0.6,2.7-1.5,3.7c-1,1-2.3,1.5-3.7,1.5H5.2c-1.4,0-2.7-0.6-3.7-1.5c-1-1-1.5-2.3-1.5-3.7  V5.2c0-1.4,0.6-2.7,1.5-3.7c1-1,2.3-1.5,3.7-1.5h38.5c1.4,0,2.7,0.6,3.7,1.5c1,1,1.5,2.3,1.5,3.7v28h8c0.5,0,1,0.2,1.4,0.6  l31.8,31.8h15.7c1.1,0,1.9,0.9,1.9,1.9c0,1.1-0.9,1.9-1.9,1.9H89.3c-0.5,0-1-0.2-1.4-0.6L56.1,37h-7.2V37.1z" style="fill:#142664;"/>

            </g>
        </g>
    </g>
    
    <!-- ITEM 5 -->
    <g>
        <defs>
            <clipPath id="clip-path-id-viewbox-item-5">
                <rect x="0.0" y="0.0" width="66.7" height="14.8"/>
            </clipPath>
        </defs>
        <g transform="translate(194.0 598.0) rotate(0.0 33.0 7.0) scale(0.9895052473763118 0.9459459459459459)">
            <g clip-path="url(#clip-path-id-viewbox-item-5)" transform="translate(-0.0 -0.0)">
                

<g>
	<path d="M66.7,7.4c0-4.1-3.3-7.4-7.4-7.4H7.4C3.3,0,0,3.3,0,7.4c0,4.1,3.3,7.4,7.4,7.4h51.9   C63.4,14.8,66.7,11.5,66.7,7.4" style="fill:#00E6B3;"/>
	<path d="M14.9,0c-2.6,1.5-4.4,4.2-4.4,7.4s1.8,5.9,4.4,7.4H8.7c-1.5-2.1-2.4-4.6-2.4-7.4c0-2.8,0.9-5.3,2.4-7.4H14.9z" style="fill:#142664;"/>
	<path d="M26.7,0c-2.6,1.5-4.4,4.2-4.4,7.4s1.8,5.9,4.4,7.4h-6.2c-1.5-2.1-2.4-4.6-2.4-7.4c0-2.8,0.9-5.3,2.4-7.4H26.7z   " style="fill:#142664;"/>
	<path d="M38.5,0c-2.6,1.5-4.4,4.2-4.4,7.4s1.8,5.9,4.4,7.4h-6.2c-1.5-2.1-2.4-4.6-2.4-7.4c0-2.8,0.9-5.3,2.4-7.4H38.5z   " style="fill:#142664;"/>
	<path d="M50.3,0c-2.6,1.5-4.4,4.2-4.4,7.4s1.8,5.9,4.4,7.4H44c-1.5-2.1-2.4-4.6-2.4-7.4c0-2.8,0.9-5.3,2.4-7.4H50.3z" style="fill:#142664;"/>
</g>

            </g>
        </g>
    </g>
    
    <!-- ITEM 6 -->
    <g>
        <defs>
            <clipPath id="clip-path-id-viewbox-item-6">
                <rect x="0.0" y="0.0" width="62.1" height="10.6"/>
            </clipPath>
        </defs>
        <g transform="translate(197.0 585.0) rotate(0.0 31.0 5.0) scale(0.998389694041868 0.9433962264150944)">
            <g clip-path="url(#clip-path-id-viewbox-item-6)" transform="translate(-0.0 -0.0)">
                

<g>
	<path d="M56.8,2.1H3.2C1.4,2.1,0,3.5,0,5.3s1.4,3.2,3.2,3.2h53.6c1.8,0,3.2-1.4,3.2-3.2C60,3.6,58.6,2.1,56.8,2.1z" style="fill:#FF2E93;"/>
	<path d="M56.8,0H49c-2.9,0-5.3,2.4-5.3,5.3c0,2.9,2.4,5.3,5.3,5.3h7.8c2.9,0,5.3-2.4,5.3-5.3S59.8,0,56.8,0z" style="fill:#142664;"/>
</g>

            </g>
        </g>
    </g>
    
    <!-- ITEM 7 -->
    <g>
        <defs>
            <clipPath id="clip-path-id-viewbox-item-7">
                <rect x="0.0" y="0.0" width="474.7" height="407.7"/>
            </clipPath>
        </defs>
        <g transform="translate(246.0 209.0) rotate(0.0 237.0 203.5) scale(0.9985253844533389 0.9982830512631837)">
            <g clip-path="url(#clip-path-id-viewbox-item-7)" transform="translate(-0.0 -0.0)">
                

<g>
	<path d="M450.9,337.5c0-7.4-6-13.3-13.3-13.3c-63.7,0-336.9,0-400.7,0c-7.4,0-13.3,6-13.3,13.3c0,14.6,0,36.1,0,36.1   h427.3V337.5L450.9,337.5z" style="fill:#FFFFFF;"/>
	<path d="M453,364v-26.5c0-8.5-6.9-15.4-15.4-15.4c-63.7,0-336.9,0-400.7,0c-8.5,0-15.4,6.9-15.4,15.4   c0,11.6,0,26.5,0,26.5c0,1.2,0.9,2.1,2.1,2.1s2.1-0.9,2.1-2.1c0,0,0-15,0-26.5c0-6.2,5-11.2,11.2-11.2c63.7,0,336.9,0,400.7,0   c6.2,0,11.2,5,11.2,11.2V364c0,1.2,0.9,2.1,2.1,2.1S453,365.2,453,364z" style="fill:#142664;"/>
	<path d="M110.2,215.3c0,2.2,1.8,4,4,4c3.6,0,8.9,0,12.5,0c2.2,0,4-1.8,4-4v-3.6c0-1.7-1.4-3-3-3l0,0c-1.7,0-3-1.4-3-3   c0-3.1,0-8.1,0-11.5c0-2.2-1.8-4-4-4c-2,0-4.4,0-6.4,0c-2.2,0-4,1.8-4,4C110.2,199.7,110.2,209.8,110.2,215.3L110.2,215.3z" style="fill:#142664;"/>
	<path d="M209.5,287.3c0-2.2-1.8-4-4-4c-2.4,0-5.4,0-7.8,0c-2.2,0-4,1.8-4,4v4.6c0,0.6,0.2,1.1,0.6,1.5   c0.4,0.4,1,0.6,1.5,0.6l0,0c0.6,0,1.1,0.2,1.5,0.6c0.4,0.4,0.6,1,0.6,1.5c0,1.2,0,2.6,0,4c0,2.2,1.8,4,4,4c1.1,0,2.3,0,3.4,0   c2.2,0,4-1.8,4-4C209.5,296.6,209.5,291.1,209.5,287.3L209.5,287.3z" style="fill:#142664;"/>
	<path d="M316.2,247.6c0-2.2-1.8-4-4-4c-5.4,0-14.8,0-20.2,0c-2.2,0-4,1.8-4,4c0,3.3,0,8,0,11.3c0,2.2,1.8,4,4,4   c1,0,2,0,3,0c2.2,0,4,1.8,4,4c0,7.9,0,25.5,0,33.4c0,1.1,0.4,2.1,1.2,2.8c0.8,0.8,1.8,1.2,2.8,1.2c2.8,0,6.4,0,9.2,0   c1.1,0,2.1-0.4,2.8-1.2c0.8-0.8,1.2-1.8,1.2-2.8C316.2,289.3,316.2,258.6,316.2,247.6L316.2,247.6z" style="fill:#142664;"/>
	<path d="M439.8,157.3c0,1.1-0.4,2.1-1.2,2.9s-1.8,1.2-2.9,1.2c-5.6,0-15.6,0-21.2,0c-1.1,0-2.1-0.4-2.9-1.2   c-0.8-0.8-1.2-1.8-1.2-2.9c0-1.4,0-3,0-4.4c0-1.1-0.4-2.1-1.2-2.9s-1.8-1.2-2.9-1.2h-4.5c-2.3,0-4.1-1.8-4.1-4.1c0-0.6,0-1.3,0-1.9   c0-2.3-1.8-4.1-4.1-4.1c-8.3,0-27.2,0-35.6,0c-2.2,0-4.1,1.8-4.1,4.1c0,8,0,25.9,0,33.9c0,2.3-1.8,4.1-4.1,4.1c-1.3,0-2.8,0-4.2,0   c-2.3,0-4.1-1.8-4.1-4.1c0-1.6,0-3.5,0-5.1c0-2.2-1.8-4.1-4.1-4.1c-5.1,0-13.7,0-18.7,0c-1.1,0-2.1-0.4-2.9-1.2   c-0.8-0.8-1.2-1.8-1.2-2.9s0-2.2,0-3.3c0-1.1-0.4-2.1-1.2-2.9s-1.8-1.2-2.9-1.2c-4.9,0-13.2,0-18.1,0c-2.2,0-4.1,1.8-4.1,4.1   c0,5.9,0,16.8,0,22.7c0,1.1-0.4,2.1-1.2,2.9s-1.8,1.2-2.9,1.2h-14.5c-1.1,0-2.1-0.4-2.9-1.2c-0.8-0.8-1.2-1.8-1.2-2.9   c0-7.8,0-24.8,0-32.6c0-2.2-1.8-4.1-4.1-4.1c-2.8,0-6.5,0-9.3,0c-2.3,0-4.1,1.8-4.1,4.1c0,2.9,0,6.7,0,9.5c0,2.2-1.8,4.1-4.1,4.1   c-3.1,0-7.2,0-10.3,0c-2.3,0-4.1-1.8-4.1-4.1c0-6.1,0-17.5,0-23.5c0-1.1-0.4-2.1-1.2-2.9c-0.8-0.8-1.8-1.2-2.9-1.2   c-4.7,0-12.4,0-17.1,0c-1.1,0-2.1,0.4-2.9,1.2c-0.8,0.8-1.2,1.8-1.2,2.9c0,10.5,0,38.4,0,48.8c0,1.1-0.4,2.1-1.2,2.9   c-0.8,0.8-1.8,1.2-2.9,1.2c-7.9,0-25.1,0-33,0c-2.2,0-4.1-1.8-4.1-4.1c0-2.1,0-4.7,0-6.7c0-2.3-1.8-4.1-4.1-4.1   c-6.5,0-19.3,0-25.9,0c-1.1,0-2.1-0.4-2.9-1.2c-0.8-0.8-1.2-1.8-1.2-2.9c0-0.8,0-1.7,0-2.5c0-1.1-0.4-2.1-1.2-2.9   c-0.8-0.8-1.8-1.2-2.9-1.2c-4.9,0-12.9,0-17.8,0c-1.1,0-2.1-0.4-2.9-1.2c-0.8-0.8-1.2-1.8-1.2-2.9c0-2.8,0-6.5,0-9.3   c0-1.1-0.4-2.1-1.2-2.9c-0.8-0.8-1.8-1.2-2.9-1.2c-2.5,0-5.8,0-8.4,0c-2.2,0-4.1,1.8-4.1,4.1c0,6.7,0,20,0,26.7   c0,2.2-1.8,4.1-4.1,4.1c-1.8,0-4,0-5.9,0c-2.2,0-4.1,1.8-4.1,4.1c0,7.7,0,24.3,0,32c0,2.3-1.8,4.1-4.1,4.1c-4.9,0-13.1,0-18,0   c-1.1,0-2.1-0.4-2.9-1.2c-0.8-0.8-1.2-1.8-1.2-2.9c0-3.4,0-8.2,0-11.6c0-2.2-1.8-4.1-4.1-4.1c-1.2,0-2.6,0-3.8,0   c-1.1,0-2.1-0.4-2.9-1.2c-0.8-0.8-1.2-1.8-1.2-2.9c0-21.8,0-124.1,0-124.1h404.7L439.8,157.3L439.8,157.3z" style="fill:#00E6B3;"/>
	<path d="M299,156.1c8.4-26.8,33.4-46.3,63-46.3c31.5,0,57.8,22.1,64.4,51.6h-11.9c-1.1,0-2.1-0.4-2.9-1.2   c-0.8-0.8-1.2-1.8-1.2-2.9c0-1.4,0-3,0-4.4c0-1.1-0.4-2.1-1.2-2.9s-1.8-1.2-2.9-1.2h-4.5c-2.3,0-4.1-1.8-4.1-4.1c0-0.6,0-1.3,0-1.9   c0-2.3-1.8-4.1-4.1-4.1c-8.3,0-27.2,0-35.6,0c-2.2,0-4.1,1.8-4.1,4.1c0,8,0,25.9,0,33.9c0,2.3-1.8,4.1-4.1,4.1c-1.3,0-2.8,0-4.2,0   c-2.3,0-4.1-1.8-4.1-4.1c0-1.6,0-3.5,0-5.1c0-2.2-1.8-4.1-4.1-4.1c-5.1,0-13.7,0-18.7,0c-1.1,0-2.1-0.4-2.9-1.2   c-0.8-0.8-1.2-1.8-1.2-2.9s0-2.2,0-3.3c0-1.1-0.4-2.1-1.2-2.9s-1.8-1.2-2.9-1.2L299,156.1L299,156.1z" style="fill:#142664;"/>
	<path d="M315.8,166L373,97.9c1.6-1.8,4-2.6,6.4-2c2.3,0.6,4.1,2.5,4.5,4.9l6.7,37.9h-32.4c-2.2,0-4.1,1.8-4.1,4.1   c0,8,0,25.9,0,33.9c0,2.3-1.8,4.1-4.1,4.1c-1.3,0-2.8,0-4.2,0c-2.3,0-4.1-1.8-4.1-4.1c0-1.6,0-3.5,0-5.1c0-2.2-1.8-4.1-4.1-4.1   c-5.1,0-13.7,0-18.7,0c-1.1,0-2.1-0.4-2.9-1.2C315.9,166.2,315.9,166.1,315.8,166L315.8,166z" style="fill:#FF2E93;"/>
	<path d="M439.8,32.4c0-2.7-1.1-5.3-3-7.2s-4.5-3-7.2-3c-56.1,0-328.3,0-384.4,0c-2.7,0-5.3,1.1-7.2,3   c-1.9,1.9-3,4.5-3,7.2c0,14.9,0,41,0,41h404.7v-41H439.8z" style="fill:#142664;"/>
	<path d="M130.1,42.9c1.3-1.3,1.7-3.3,1-5s-2.4-2.8-4.2-2.8c-15.5,0-42.5,0-49.9,0c-1.2,0-2.4,0.5-3.2,1.3   c-3,3-10.5,10.4-16.3,16.3c-1.3,1.3-1.7,3.3-1,5s2.4,2.8,4.2,2.8c15.5,0,42.5,0,49.9,0c1.2,0,2.4-0.5,3.2-1.3   C116.8,56.2,124.3,48.7,130.1,42.9L130.1,42.9z" style="fill:#FFFFFF;"/>
	<path d="M228.7,31.3v32.4c0,1.2,0.9,2.1,2.1,2.1s2.1-0.9,2.1-2.1V31.3c0-1.2-0.9-2.1-2.1-2.1   C229.7,29.1,228.7,30.1,228.7,31.3L228.7,31.3z" style="fill:#00E6B3;"/>
	<path d="M279.1,31.3v32.4c0,1.2,0.9,2.1,2.1,2.1s2.1-0.9,2.1-2.1V31.3c0-1.2-0.9-2.1-2.1-2.1S279.1,30.1,279.1,31.3   L279.1,31.3z" style="fill:#00E6B3;"/>
	<path d="M221.1,45.3c0-0.6-0.2-1.1-0.6-1.5s-1-0.6-1.6-0.6c-5.7,0-20.8,0-26.5,0c-0.6,0-1.1,0.2-1.5,0.6   s-0.6,1-0.6,1.5c0,1.5,0,3.4,0,4.9c0,0.6,0.2,1.1,0.6,1.5s1,0.6,1.5,0.6c5.7,0,20.8,0,26.5,0c0.6,0,1.1-0.2,1.6-0.6   c0.4-0.4,0.6-1,0.6-1.5C221.1,48.7,221.1,46.8,221.1,45.3z" style="fill:#00E6B3;"/>
	<path d="M271.5,45.3c0-0.6-0.2-1.1-0.6-1.5c-0.4-0.4-1-0.6-1.5-0.6c-5.7,0-20.8,0-26.5,0c-0.6,0-1.1,0.2-1.5,0.6   c-0.4,0.4-0.6,1-0.6,1.5c0,1.5,0,3.4,0,4.9c0,0.6,0.2,1.1,0.6,1.5s1,0.6,1.5,0.6c5.7,0,20.8,0,26.5,0c0.6,0,1.1-0.2,1.5-0.6   s0.6-1,0.6-1.5C271.5,48.7,271.5,46.8,271.5,45.3z" style="fill:#00E6B3;"/>
	<path d="M321.9,45.3c0-0.6-0.2-1.1-0.6-1.5s-1-0.6-1.5-0.6c-5.7,0-20.8,0-26.5,0c-0.6,0-1.1,0.2-1.5,0.6   c-0.4,0.4-0.6,1-0.6,1.5c0,1.5,0,3.4,0,4.9c0,0.6,0.2,1.1,0.6,1.5c0.4,0.4,1,0.6,1.5,0.6c5.7,0,20.8,0,26.5,0   c0.6,0,1.1-0.2,1.5-0.6s0.6-1,0.6-1.5C321.9,48.7,321.9,46.8,321.9,45.3z" style="fill:#00E6B3;"/>
	<circle cx="366.9" cy="47.5" r="16.2" style="fill:#FF2E93;"/>
	<circle cx="42.5" cy="7.4" r="7.4" style="fill:#FF2E93;"/>
	<circle cx="66.4" cy="7.4" r="7.4" style="fill:#142664;"/>
	<circle cx="90.4" cy="7.4" r="7.4" style="fill:#00E6B3;"/>
	<circle cx="409.2" cy="47.5" r="16.2" style="fill:#FF2E93;"/>
	<path d="M93.8,97.5c0-1.1-0.4-2.2-1.2-2.9c-0.8-0.8-1.8-1.2-2.9-1.2c-3.6,0-8.7,0-12.3,0c-1.1,0-2.2,0.4-2.9,1.2   c-0.8,0.8-1.2,1.8-1.2,2.9c0,2.6,0,6,0,8.6c0,1.1,0.4,2.2,1.2,2.9s1.8,1.2,2.9,1.2c3.6,0,8.7,0,12.3,0c1.1,0,2.2-0.4,2.9-1.2   s1.2-1.8,1.2-2.9C93.8,103.5,93.8,100.1,93.8,97.5z" style="fill:#FFFFFF;"/>
	<path d="M243.9,97.5c0-2.3-1.9-4.2-4.2-4.2c-20.3,0-108.6,0-128.8,0c-2.3,0-4.2,1.9-4.2,4.2c0,2.6,0,6,0,8.6   c0,2.3,1.9,4.2,4.2,4.2c20.3,0,108.6,0,128.8,0c2.3,0,4.2-1.9,4.2-4.2C243.9,103.5,243.9,100.1,243.9,97.5z" style="fill:#FFFFFF;"/>
	<path d="M303.5,97.5c0-2.3-1.9-4.2-4.2-4.2h-38.2c-2.3,0-4.2,1.9-4.2,4.2v8.6c0,2.3,1.9,4.2,4.2,4.2h38.2   c2.3,0,4.2-1.9,4.2-4.2V97.5z" style="fill:#FFFFFF;"/>
	<path d="M406.7,40.8l0.7-2.9h3.8l0.7,2.9c0.1,0,0.2,0.1,0.3,0.1l2.5-1.6l2.7,2.7l-1.6,2.5c0,0.1,0.1,0.2,0.1,0.3   l2.9,0.7v3.8l-2.9,0.7c0,0.1-0.1,0.2-0.1,0.3l1.6,2.5l-2.7,2.7l-2.5-1.6c-0.1,0-0.2,0.1-0.3,0.1l-0.7,2.9h-3.8l-0.7-2.9   c-0.1,0-0.2-0.1-0.3-0.1l-2.5,1.6l-2.7-2.7l1.6-2.5c0-0.1-0.1-0.2-0.1-0.3l-2.9-0.7v-3.8l2.9-0.7c0-0.1,0.1-0.2,0.1-0.3l-1.6-2.5   l2.7-2.7l2.5,1.6C406.5,40.9,406.6,40.9,406.7,40.8z M409.2,44.2c1.8,0,3.2,1.5,3.2,3.2c0,1.8-1.5,3.2-3.2,3.2   c-1.8,0-3.2-1.5-3.2-3.2S407.4,44.2,409.2,44.2z" style="fill:#FFFFFF;"/>
	<path d="M92.1,135.1c0.7,0,1.5,0.3,2,0.8s0.8,1.2,0.8,2c0,0.5,0,1.1,0,1.6c0,0.7-0.3,1.5-0.8,2s-1.2,0.8-2,0.8   c-4.2,0-12,0-16.1,0c-0.7,0-1.5-0.3-2-0.8s-0.8-1.2-0.8-2c0-0.5,0-1.1,0-1.6c0-0.7,0.3-1.5,0.8-2s1.2-0.8,2-0.8   C80.2,135.1,87.9,135.1,92.1,135.1z M153.9,139.6c0,0.7-0.3,1.5-0.8,2s-1.2,0.8-2,0.8c-9.1,0-37.8,0-46.9,0c-0.7,0-1.5-0.3-2-0.8   s-0.8-1.2-0.8-2c0-0.5,0-1.1,0-1.6c0-0.7,0.3-1.5,0.8-2s1.2-0.8,2-0.8c9.1,0,37.8,0,46.9,0c0.7,0,1.5,0.3,2,0.8s0.8,1.2,0.8,2   C153.9,138.5,153.9,139,153.9,139.6z M204.7,142.4H163c-0.7,0-1.5-0.3-2-0.8s-0.8-1.2-0.8-2c0-0.5,0-1.1,0-1.6c0-0.7,0.3-1.5,0.8-2   s1.2-0.8,2-0.8c9.8,0,41.7,0,41.7,0V142.4z M250.2,139.6c0,0.7-0.3,1.5-0.8,2s-1.2,0.8-2,0.8c-2.9,0-7.5,0-10.4,0   c-0.7,0-1.5-0.3-2-0.8s-0.8-1.2-0.8-2c0-0.5,0-1.1,0-1.6c0-0.7,0.3-1.5,0.8-2s1.2-0.8,2-0.8c2.9,0,7.5,0,10.4,0   c0.7,0,1.5,0.3,2,0.8s0.8,1.2,0.8,2C250.2,138.5,250.2,139,250.2,139.6z M256.6,137.9c0-0.7,0.3-1.5,0.8-2s1.2-0.8,2-0.8   c4.1,0,11.7,0,15.8,0c0.7,0,1.5,0.3,2,0.8s0.8,1.2,0.8,2c0,0.5,0,1.1,0,1.6c0,0.7-0.3,1.5-0.8,2s-1.2,0.8-2,0.8   c-4.1,0-11.7,0-15.8,0c-0.7,0-1.5-0.3-2-0.8s-0.8-1.2-0.8-2C256.6,139,256.6,138.5,256.6,137.9L256.6,137.9z" style="fill:#142664;"/>
	<path d="M119.4,121.4c1.6,0,2.8,1.3,2.8,2.8c0,0.5,0,1.1,0,1.6c0,1.6-1.3,2.8-2.8,2.8c-8.7,0-34.8,0-43.4,0   c-1.6,0-2.8-1.3-2.8-2.8c0-0.5,0-1.1,0-1.6c0-1.6,1.3-2.8,2.8-2.8C84.7,121.4,110.8,121.4,119.4,121.4z M141.8,125.9   c0,0.7-0.3,1.5-0.8,2s-1.2,0.8-2,0.8c-2.2,0-5.3,0-7.5,0c-0.7,0-1.5-0.3-2-0.8s-0.8-1.2-0.8-2c0-0.5,0-1.1,0-1.6   c0-0.7,0.3-1.5,0.8-2s1.2-0.8,2-0.8c2.2,0,5.3,0,7.5,0c0.7,0,1.5,0.3,2,0.8s0.8,1.2,0.8,2C141.8,124.8,141.8,125.3,141.8,125.9z    M223.5,125.9c0,0.7-0.3,1.5-0.8,2s-1.2,0.8-2,0.8c-11.9,0-57.8,0-69.7,0c-0.7,0-1.5-0.3-2-0.8s-0.8-1.2-0.8-2c0-0.5,0-1.1,0-1.6   c0-0.7,0.3-1.5,0.8-2s1.2-0.8,2-0.8c11.9,0,57.8,0,69.7,0c0.7,0,1.5,0.3,2,0.8s0.8,1.2,0.8,2C223.5,124.8,223.5,125.3,223.5,125.9z    M229.8,124.2c0-0.7,0.3-1.5,0.8-2s1.2-0.8,2-0.8c8.5,0,34,0,42.5,0c0.7,0,1.5,0.3,2,0.8s0.8,1.2,0.8,2c0,0.5,0,1.1,0,1.6   c0,0.7-0.3,1.5-0.8,2s-1.2,0.8-2,0.8c-8.5,0-34,0-42.5,0c-0.7,0-1.5-0.3-2-0.8s-0.8-1.2-0.8-2C229.8,125.3,229.8,124.8,229.8,124.2   L229.8,124.2z" style="fill:#142664;"/>
	<path d="M87.2,148.8v7.3H76c-0.7,0-1.5-0.3-2-0.8s-0.8-1.2-0.8-2c0-0.5,0-1.1,0-1.6c0-0.7,0.3-1.5,0.8-2s1.2-0.8,2-0.8   C80.1,148.8,87.2,148.8,87.2,148.8z M157.6,153.3c0,1.6-1.3,2.8-2.8,2.8c-5.4,0-17.1,0-22.5,0c-1.6,0-2.8-1.3-2.8-2.8   c0-0.5,0-1.1,0-1.6c0-1.6,1.3-2.8,2.8-2.8c5.4,0,17.1,0,22.5,0c1.6,0,2.8,1.3,2.8,2.8C157.6,152.2,157.6,152.7,157.6,153.3   L157.6,153.3z M174.2,153.3c0,1.6-1.3,2.8-2.8,2.8c-1.4,0-3.2,0-4.6,0c-1.6,0-2.8-1.3-2.8-2.8c0-0.5,0-1.1,0-1.6   c0-1.6,1.3-2.8,2.8-2.8c1.4,0,3.2,0,4.6,0c1.6,0,2.8,1.3,2.8,2.8C174.2,152.2,174.2,152.7,174.2,153.3z M204.7,148.8v7.3h-21.3   c-0.7,0-1.5-0.3-2-0.8s-0.8-1.2-0.8-2c0-0.5,0-1.1,0-1.6c0-0.7,0.3-1.5,0.8-2s1.2-0.8,2-0.8C189.8,148.8,204.7,148.8,204.7,148.8z    M230,148.8h9.5c1.6,0,2.8,1.3,2.8,2.8c0,0.5,0,1.1,0,1.6c0,1.6-1.3,2.8-2.8,2.8c-3.6,0-9.5,0-9.5,0V148.8L230,148.8z M109,151.6   c0-0.7,0.3-1.5,0.8-2s1.2-0.8,2-0.8c2.5,0,6,0,8.4,0c0.7,0,1.5,0.3,2,0.8s0.8,1.2,0.8,2c0,0.5,0,1.1,0,1.6c0,0.7-0.3,1.5-0.8,2   s-1.2,0.8-2,0.8c-2.5,0-6,0-8.4,0c-0.7,0-1.5-0.3-2-0.8s-0.8-1.2-0.8-2C109,152.7,109,152.2,109,151.6z" style="fill:#142664;"/>
	<path d="M147.7,49.1c1.3-1.3,1.7-3.3,1-5s-2.4-2.8-4.2-2.8c-12.5,0-31.9,0-38,0c-1.2,0-2.4,0.5-3.2,1.3   c-1,1-2.4,2.4-4,4c-1.3,1.3-1.7,3.3-1,5s2.4,2.8,4.2,2.8c12.5,0,31.9,0,38,0c1.2,0,2.4-0.5,3.2-1.3C144.7,52,146.2,50.6,147.7,49.1   z" style="fill:#FF2E93;"/>
	<path d="M92.3,49.1c1.3-1.3,1.7-3.3,1-5s-2.4-2.8-4.2-2.8c-4,0-8.1,0-10.5,0c-1.2,0-2.4,0.5-3.2,1.3c-1,1-2.4,2.4-4,4   c-1.3,1.3-1.7,3.3-1,5s2.4,2.8,4.2,2.8c4,0,8.1,0,10.5,0c1.2,0,2.4-0.5,3.2-1.3C89.4,52,90.8,50.6,92.3,49.1z" style="fill:#FF2E93;"/>
	<path d="M80.4,296.3c-1.6,0-2.8-1.3-2.8-2.8c0-6.1,0-20.3,0-27.2c0-1.1,0.4-2.1,1.2-2.8c0.8-0.8,1.8-1.2,2.8-1.2   c2.2,0,4.9,0,7.1,0s4,1.8,4,4v1.8c0,1.1,0.4,2.1,1.2,2.8c0.8,0.8,1.8,1.2,2.8,1.2c0.7,0,1.4,0,2.1,0c1.1,0,2.1,0.4,2.8,1.2   c0.8,0.8,1.2,1.8,1.2,2.8c0,5.6,0,15.6,0,21.1c0,1.1-0.4,2.1-1.2,2.8c-0.8,0.8-1.8,1.2-2.8,1.2c-1.2,0-2.4,0-3.6,0   c-2.2,0-4,1.8-4,4c0,0.1,0,0.2,0,0.3c0,2.2-1.8,4-4,4l0,0c-2.2,0-4-1.8-4-4c0-2.1,0-4.6,0-6.4C83.3,297.5,82,296.3,80.4,296.3   L80.4,296.3L80.4,296.3z" style="fill:#00E6B3;"/>
	<path d="M297,228.5c-1.1,0-1.9-0.9-1.9-1.9c0-4.7,0-16.8,0-22c0-1.3,1.1-2.4,2.4-2.4c1,0,2.2,0,3.3,0   c0.7,0,1.4,0.3,1.9,0.8s0.8,1.2,0.8,1.9l0,0c0,0.7,0.3,1.4,0.8,1.9s1.2,0.8,1.9,0.8c0,0,0,0,0.1,0c0.7,0,1.5,0.3,2,0.8   s0.8,1.2,0.8,2c0,2.6,0,6.5,0,9.4c0,1.1-0.4,2.1-1.2,2.8c-0.8,0.8-1.8,1.2-2.8,1.2c-0.2,0-0.4,0-0.5,0c-0.5,0-1,0.2-1.4,0.6   s-0.6,0.9-0.6,1.4c0,0.3,0,0.5,0,0.8c0,0.5-0.2,1-0.6,1.4c-0.4,0.4-0.9,0.6-1.4,0.6C299.6,228.5,298.2,228.5,297,228.5L297,228.5z" style="fill:#FF2E93;"/>
	<path d="M66.1,244.9c0-1.1-0.4-2.1-1.2-2.8c-0.8-0.8-1.8-1.2-2.8-1.2h-5.2c-1.1,0-2.1,0.4-2.8,1.2s-1.2,1.8-1.2,2.8   v5.2c0,1.1,0.4,2.1,1.2,2.8c0.8,0.8,1.8,1.2,2.8,1.2h5.2c1.1,0,2.1-0.4,2.8-1.2c0.8-0.8,1.2-1.8,1.2-2.8V244.9z" style="fill:#FF2E93;"/>
	<path d="M357.6,56.1L357.6,56.1c0-4.3,0.8-7.8,6.4-8.7c-1.5-1-2.5-2.7-2.5-4.6c0-3,2.5-5.5,5.5-5.5s5.5,2.5,5.5,5.5   c0,1.9-1,3.7-2.5,4.6c5.6,0.9,6.3,4.4,6.4,8.7c0,0.1,0,0.3-0.1,0.3c-0.1,0.1-0.2,0.1-0.3,0.1c-2.6,0-15.1,0-17.8,0   c-0.1,0-0.2-0.1-0.3-0.1C357.6,56.4,357.6,56.3,357.6,56.1L357.6,56.1L357.6,56.1z" style="fill:#FFFFFF;"/>
	<path d="M120.5,206.1c0-1.1-0.4-2.1-1.2-2.8c-0.8-0.8-1.8-1.2-2.8-1.2c-4,0-10,0-14,0c-1.1,0-2.1,0.4-2.8,1.2   c-0.8,0.8-1.2,1.8-1.2,2.8c0,5.4,0,14.8,0,20.2c0,1.1,0.4,2.1,1.2,2.8c0.8,0.8,1.8,1.2,2.8,1.2c4,0,10,0,14,0   c1.1,0,2.1-0.4,2.8-1.2c0.8-0.8,1.2-1.8,1.2-2.8C120.5,220.9,120.5,211.4,120.5,206.1z" style="fill:#00E6B3;"/>
	<path d="M326.8,266.5c0-2.2-1.8-4-4-4h-8.9c-2.2,0-4,1.8-4,4v26.2c0,2.2,1.8,4,4,4h8.9c2.2,0,4-1.8,4-4V266.5z" style="fill:#FF2E93;"/>
	<path d="M400.2,185.6c0-0.9-0.7-1.6-1.6-1.6c-0.8,0-1.8,0-2.6,0c-0.9,0-1.6,0.7-1.6,1.6c0,4.7,0,18.1,0,22.8   c0,0.9,0.7,1.6,1.6,1.6c0.8,0,1.8,0,2.6,0c0.9,0,1.6-0.7,1.6-1.6C400.2,203.7,400.2,190.3,400.2,185.6z" style="fill:#FF2E93;"/>
	<path d="M272.8,256c0-0.9-0.7-1.6-1.6-1.6c-2.1,0-5.8,0-8,0c-0.9,0-1.6,0.7-1.6,1.6c0,3.5,0,11.8,0,15.4   c0,0.9,0.7,1.6,1.6,1.6c2.1,0,5.8,0,8,0c0.9,0,1.6-0.7,1.6-1.6C272.8,267.9,272.8,259.6,272.8,256z" style="fill:#00E6B3;"/>
	<path d="M224.4,183.1c-2.2,0-4,1.8-4,4c0,6.7,0,20,0,26.6c0,2.2,1.8,4,4,4c1.8,0,4,0,5.8,0c2.2,0,4-1.8,4-4   c0-2.1,0-4.6,0-6.4c0-0.6-0.2-1.2-0.7-1.6c-0.4-0.4-1-0.7-1.6-0.7l0,0c-0.6,0-1.2-0.2-1.6-0.7c-0.4-0.4-0.7-1-0.7-1.6   c0-3.7,0-11.1,0-15.6c0-2.2-1.8-4-4-4C225.2,183.1,224.8,183.1,224.4,183.1z" style="fill:#FF2E93;"/>
	<path d="M384.1,184.5c2.2,0,4-1.8,4-4c0-5.9,0-16.9,0-22.8c0-1.1-0.4-2.1-1.2-2.8c-0.8-0.8-1.8-1.2-2.8-1.2h-7.6   c-1.1,0-2.1,0.4-2.8,1.2c-0.8,0.8-1.2,1.8-1.2,2.8c0,2.5,0,5.5,0,7.7c0,1.5,1.2,2.6,2.6,2.6l0,0c0.7,0,1.4,0.3,1.9,0.8   s0.8,1.2,0.8,1.9c0,2.6,0,6.8,0,9.8c0,2.2,1.8,4,4,4C382.5,184.5,383.3,184.5,384.1,184.5L384.1,184.5z" style="fill:#142664;"/>
	<path d="M362.2,218.7c-2.2,0-4,1.8-4,4c0,7.4,0,23,0,30.3c0,2.2,1.8,4,4,4c3.3,0,8.1,0,11.4,0c2.2,0,4-1.8,4-4   c0-5.2,0-14.3,0-19.1c0-1.8-1.5-3.3-3.3-3.3l0,0c-1.8,0-3.3-1.5-3.3-3.3v-4.7c0-1.1-0.4-2.1-1.2-2.8c-0.8-0.8-1.8-1.2-2.8-1.2   C365.6,218.7,363.8,218.7,362.2,218.7z" style="fill:#00E6B3;"/>
	<path d="M64.2,306.3c-2.2,0-4,1.8-4,4c0,8.7,0,28.7,0,28.7h17.7v-19.9c0-1.1-0.4-2.1-1.2-2.8c-0.8-0.8-1.8-1.2-2.8-1.2   l0,0c-2.2,0-4-1.8-4-4c0-0.2,0-0.5,0-0.7c0-2.2-1.8-4-4-4C65.3,306.3,64.7,306.3,64.2,306.3L64.2,306.3z" style="fill:#142664;"/>
	<path d="M181.7,229.2c0-1.1-0.4-2.1-1.2-2.8c-0.8-0.8-1.8-1.2-2.8-1.2c-3.4,0-8.2,0-11.6,0c-2.2,0-4,1.8-4,4   c0,8.8,0,29.9,0,38.7c0,2.2,1.8,4,4,4c2.5,0,5.6,0,8,0c2.2,0,4-1.8,4-4c0-1.2,0-2.5,0-3.5c0-0.7-0.3-1.3-0.8-1.8s-1.1-0.8-1.8-0.8   l0,0c-0.7,0-1.3-0.3-1.8-0.8s-0.8-1.1-0.8-1.8c0-3.9,0-11.3,0-15.9c0-1.1,0.4-2.1,1.2-2.8c0.8-0.8,1.8-1.2,2.8-1.2   c0.2,0,0.5,0,0.7,0c1.1,0,2.1-0.4,2.8-1.2c0.8-0.8,1.2-1.8,1.2-2.8C181.7,233.4,181.7,231.1,181.7,229.2L181.7,229.2z" style="fill:#00E6B3;"/>
	<path d="M474.5,377.6c0-5.2-4.2-9.4-9.4-9.4c-60.5,0-395.2,0-455.7,0c-5.2,0-9.4,4.2-9.4,9.4c0,8,0,19.2,0,25.4   c0,1.2,0.5,2.4,1.4,3.3c0.9,0.9,2.1,1.4,3.3,1.4c46.1,0,419.1,0,465.1,0c1.2,0,2.4-0.5,3.3-1.4c0.9-0.9,1.4-2.1,1.4-3.3   C474.5,396.8,474.5,385.6,474.5,377.6z" style="fill:#FF2E93;"/>
	<path d="M474.5,377.6c0-2.5-1-4.9-2.7-6.6c-1.8-1.8-4.1-2.7-6.6-2.7h-20.7c-2.5,0-4.9,1-6.6,2.7   c-1.8,1.8-2.7,4.1-2.7,6.6v25.3c0,2.7,2.2,4.8,4.8,4.8h30c2.6,0,4.7-2.1,4.7-4.7v-25.4H474.5z" style="fill:#142664;"/>
	<path d="M439.8,334.4c0-2.5-2-4.6-4.6-4.6H39.6c-2.5,0-4.6,2-4.6,4.6l0,0c0,2.5,2,4.6,4.6,4.6h395.6   C437.7,338.9,439.8,336.9,439.8,334.4L439.8,334.4z" style="fill:#142664;"/>
	<path d="M384,338.9v-25.5c0-2.1,1.7-3.9,3.9-3.9l0,0c2.1,0,3.9-1.7,3.9-3.9c0-2.9,0-6.9,0-9.9c0-1.1,0.4-2.1,1.2-2.8   c0.8-0.8,1.8-1.2,2.8-1.2h2.5c1.1,0,2.1,0.4,2.8,1.2c0.8,0.8,1.2,1.8,1.2,2.8s0,2.1,0,3.1c0,1.1,0.4,2.1,1.2,2.8   c0.8,0.7,1.8,1.2,2.8,1.2c0.7,0,1.4,0,2.1,0c1.1,0,2.1,0.4,2.8,1.2c0.8,0.8,1.2,1.8,1.2,2.8c0,9.4,0,32,0,32H384V338.9z" style="fill:#00E6B3;"/>
	<path d="M166.8,257.6c0-2.2-1.8-4-4-4c-1.4,0-2.9,0-4.3,0c-2.2,0-4,1.8-4,4c0,6.2,0,18,0,24.4c0,1.2,0.5,2.3,1.3,3.1   c0.8,0.8,1.9,1.3,3.1,1.3s2.4,0,3.6,0s2.3-0.5,3.1-1.3c0.8-0.8,1.3-1.9,1.3-3.1C166.8,275.6,166.8,263.8,166.8,257.6L166.8,257.6z" style="fill:#FF2E93;"/>
	<path d="M433.6,255.1c0-2.2-1.8-4-4-4h-7.7c-2.2,0-4,1.8-4,4v7.7c0,2.2,1.8,4,4,4h7.7c2.2,0,4-1.8,4-4V255.1z" style="fill:#FF2E93;"/>
	<path d="M411.4,226.6c0-0.7-0.6-1.3-1.3-1.3h-3.8c-0.7,0-1.3,0.6-1.3,1.3v3.8c0,0.7,0.6,1.3,1.3,1.3h3.8   c0.7,0,1.3-0.6,1.3-1.3V226.6z" style="fill:#142664;"/>
	<path d="M273.6,209.5c0-0.7-0.6-1.3-1.3-1.3h-3.8c-0.7,0-1.3,0.6-1.3,1.3v3.8c0,0.7,0.6,1.3,1.3,1.3h3.8   c0.7,0,1.3-0.6,1.3-1.3V209.5z" style="fill:#142664;"/>
	<path d="M187.4,302.7c0-0.7-0.6-1.3-1.3-1.3c-0.5,0-1.1,0-1.7,0c-0.7,0-1.3,0.6-1.3,1.3c0,0.5,0,1.1,0,1.7   c0,0.7,0.6,1.3,1.3,1.3c0.5,0,1.1,0,1.7,0c0.7,0,1.3-0.6,1.3-1.3V302.7z" style="fill:#142664;"/>
	<path d="M417.9,289.2c0-0.7-0.6-1.3-1.3-1.3c-0.5,0-1.1,0-1.7,0c-0.7,0-1.3,0.6-1.3,1.3c0,0.5,0,1.1,0,1.7   c0,0.7,0.6,1.3,1.3,1.3c0.5,0,1.1,0,1.7,0c0.7,0,1.3-0.6,1.3-1.3V289.2z" style="fill:#142664;"/>
	<path d="M331.4,311c0-0.7-0.6-1.3-1.3-1.3c-0.5,0-1.1,0-1.7,0c-0.7,0-1.3,0.6-1.3,1.3c0,0.5,0,1.1,0,1.7   c0,0.7,0.6,1.3,1.3,1.3c0.5,0,1.1,0,1.7,0c0.7,0,1.3-0.6,1.3-1.3V311z" style="fill:#142664;"/>
	<path d="M337.5,276.4c0-0.7-0.6-1.3-1.3-1.3c-0.5,0-1.1,0-1.7,0c-0.7,0-1.3,0.6-1.3,1.3c0,0.5,0,1.1,0,1.7   c0,0.7,0.6,1.3,1.3,1.3c0.5,0,1.1,0,1.7,0c0.7,0,1.3-0.6,1.3-1.3V276.4z" style="fill:#00E6B3;"/>
	<path d="M376.7,193.8c0-0.7-0.6-1.3-1.3-1.3c-0.5,0-1.1,0-1.7,0c-0.7,0-1.3,0.6-1.3,1.3c0,0.5,0,1.1,0,1.7   c0,0.7,0.6,1.3,1.3,1.3c0.5,0,1.1,0,1.7,0c0.7,0,1.3-0.6,1.3-1.3V193.8z" style="fill:#142664;"/>
	<path d="M151.8,210.3c0-0.7-0.6-1.3-1.3-1.3c-0.5,0-1.1,0-1.7,0c-0.7,0-1.3,0.6-1.3,1.3c0,0.5,0,1.1,0,1.7   c0,0.7,0.6,1.3,1.3,1.3c0.5,0,1.1,0,1.7,0c0.7,0,1.3-0.6,1.3-1.3V210.3z" style="fill:#142664;"/>
	<path d="M103.4,248.2c0-0.7-0.6-1.3-1.3-1.3c-0.5,0-1.1,0-1.7,0c-0.7,0-1.3,0.6-1.3,1.3c0,0.5,0,1.1,0,1.7   c0,0.7,0.6,1.3,1.3,1.3c0.5,0,1.1,0,1.7,0c0.7,0,1.3-0.6,1.3-1.3V248.2z" style="fill:#FF2E93;"/>
	<path d="M128,283.3c0-0.7-0.6-1.3-1.3-1.3c-0.5,0-1.1,0-1.7,0c-0.7,0-1.3,0.6-1.3,1.3c0,0.5,0,1.1,0,1.7   c0,0.7,0.6,1.3,1.3,1.3c0.5,0,1.1,0,1.7,0c0.7,0,1.3-0.6,1.3-1.3V283.3z" style="fill:#FF2E93;"/>
	<path d="M195.9,313.5c0-0.7-0.6-1.3-1.3-1.3c-0.5,0-1.1,0-1.7,0c-0.7,0-1.3,0.6-1.3,1.3c0,0.5,0,1.1,0,1.7   c0,0.7,0.6,1.3,1.3,1.3c0.5,0,1.1,0,1.7,0c0.7,0,1.3-0.6,1.3-1.3V313.5z" style="fill:#FF2E93;"/>
	<path d="M409.9,168.3c0-0.7-0.6-1.3-1.3-1.3c-0.5,0-1.1,0-1.7,0c-0.7,0-1.3,0.6-1.3,1.3c0,0.5,0,1.1,0,1.7   c0,0.7,0.6,1.3,1.3,1.3c0.5,0,1.1,0,1.7,0c0.7,0,1.3-0.6,1.3-1.3V168.3z" style="fill:#FF2E93;"/>
	<path d="M259.4,248.1c0-0.7-0.6-1.3-1.3-1.3c-0.5,0-1.1,0-1.7,0c-0.7,0-1.3,0.6-1.3,1.3c0,0.5,0,1.1,0,1.7   c0,0.7,0.6,1.3,1.3,1.3c0.5,0,1.1,0,1.7,0c0.7,0,1.3-0.6,1.3-1.3V248.1z" style="fill:#FF2E93;"/>
	<path d="M225,155.5c0-0.7-0.6-1.3-1.3-1.3c-0.5,0-1.1,0-1.7,0c-0.7,0-1.3,0.6-1.3,1.3c0,0.5,0,1.1,0,1.7   c0,0.7,0.6,1.3,1.3,1.3c0.5,0,1.1,0,1.7,0c0.7,0,1.3-0.6,1.3-1.3V155.5z" style="fill:#FF2E93;"/>
	<path d="M121,183.2c0-0.7-0.6-1.3-1.3-1.3c-0.5,0-1.1,0-1.7,0c-0.7,0-1.3,0.6-1.3,1.3c0,0.5,0,1.1,0,1.7   c0,0.7,0.6,1.3,1.3,1.3c0.5,0,1.1,0,1.7,0c0.7,0,1.3-0.6,1.3-1.3V183.2z" style="fill:#FF2E93;"/>
	<path d="M72.3,289.7c0-0.7-0.6-1.3-1.3-1.3c-0.5,0-1.1,0-1.7,0c-0.7,0-1.3,0.6-1.3,1.3c0,0.5,0,1.1,0,1.7   c0,0.7,0.6,1.3,1.3,1.3c0.5,0,1.1,0,1.7,0c0.7,0,1.3-0.6,1.3-1.3V289.7z" style="fill:#00E6B3;"/>
	<path d="M248.4,305.9c0-0.7-0.6-1.3-1.3-1.3c-0.5,0-1.1,0-1.7,0c-0.7,0-1.3,0.6-1.3,1.3c0,0.5,0,1.1,0,1.7   c0,0.7,0.6,1.3,1.3,1.3c0.5,0,1.1,0,1.7,0c0.7,0,1.3-0.6,1.3-1.3V305.9z" style="fill:#00E6B3;"/>
	<path d="M279.9,220c0-0.7-0.6-1.3-1.3-1.3c-0.5,0-1.1,0-1.7,0c-0.7,0-1.3,0.6-1.3,1.3c0,0.5,0,1.1,0,1.7   c0,0.7,0.6,1.3,1.3,1.3c0.5,0,1.1,0,1.7,0c0.7,0,1.3-0.6,1.3-1.3V220z" style="fill:#00E6B3;"/>
	<path d="M323.8,193.8c0-0.7-0.6-1.3-1.3-1.3h-3.8c-0.7,0-1.3,0.6-1.3,1.3v3.8c0,0.7,0.6,1.3,1.3,1.3h3.8   c0.7,0,1.3-0.6,1.3-1.3V193.8z" style="fill:#FF2E93;"/>
	<path d="M240.6,283.2c0-0.7-0.6-1.3-1.3-1.3h-3.8c-0.7,0-1.3,0.6-1.3,1.3v3.8c0,0.7,0.6,1.3,1.3,1.3h3.8   c0.7,0,1.3-0.6,1.3-1.3V283.2z" style="fill:#FF2E93;"/>
	<path d="M386.8,274.8c0-0.7-0.6-1.3-1.3-1.3h-3.8c-0.7,0-1.3,0.6-1.3,1.3v3.8c0,0.7,0.6,1.3,1.3,1.3h3.8   c0.7,0,1.3-0.6,1.3-1.3V274.8z" style="fill:#FF2E93;"/>
	<path d="M95.2,236.5c0-0.7-0.6-1.3-1.3-1.3h-3.8c-0.7,0-1.3,0.6-1.3,1.3v3.8c0,0.7,0.6,1.3,1.3,1.3h3.8   c0.7,0,1.3-0.6,1.3-1.3V236.5z" style="fill:#142664;"/>
	<path d="M254.7,171.8c0-0.7-0.6-1.3-1.3-1.3h-3.8c-0.7,0-1.3,0.6-1.3,1.3v3.8c0,0.7,0.6,1.3,1.3,1.3h3.8   c0.7,0,1.3-0.6,1.3-1.3V171.8z" style="fill:#142664;"/>
	<path d="M158.2,197.4c0-0.7-0.6-1.3-1.3-1.3h-3.8c-0.7,0-1.3,0.6-1.3,1.3v3.8c0,0.7,0.6,1.3,1.3,1.3h3.8   c0.7,0,1.3-0.6,1.3-1.3V197.4z" style="fill:#00E6B3;"/>
	<path d="M343.7,285c0-0.7-0.6-1.3-1.3-1.3h-3.8c-0.7,0-1.3,0.6-1.3,1.3v3.8c0,0.7,0.6,1.3,1.3,1.3h3.8   c0.7,0,1.3-0.6,1.3-1.3V285z" style="fill:#00E6B3;"/>
	<path d="M220.4,224.1c0-0.7-0.6-1.3-1.3-1.3c-1.1,0-2.7,0-3.8,0c-0.7,0-1.3,0.6-1.3,1.3c0,2.2,0,6.5,0,8.7   c0,0.7,0.6,1.3,1.3,1.3c1.1,0,2.7,0,3.8,0c0.7,0,1.3-0.6,1.3-1.3C220.4,230.6,220.4,226.3,220.4,224.1z" style="fill:#142664;"/>
	<path d="M313,175.6c0-0.7-0.6-1.3-1.3-1.3c-1.1,0-2.7,0-3.8,0c-0.7,0-1.3,0.6-1.3,1.3c0,2.2,0,6.5,0,8.7   c0,0.7,0.6,1.3,1.3,1.3c1.1,0,2.7,0,3.8,0c0.7,0,1.3-0.6,1.3-1.3C313,182.1,313,177.8,313,175.6z" style="fill:#00E6B3;"/>
	<path d="M220,163.5c0-0.7-0.6-1.3-1.3-1.3c-1.1,0-2.7,0-3.8,0c-0.7,0-1.3,0.6-1.3,1.3c0,2.2,0,6.5,0,8.7   c0,0.7,0.6,1.3,1.3,1.3c1.1,0,2.7,0,3.8,0c0.7,0,1.3-0.6,1.3-1.3C220,170,220,165.7,220,163.5z" style="fill:#142664;"/>
	<path d="M46.5,272.1c0,0.7,0.6,1.3,1.3,1.3c1.1,0,2.7,0,3.8,0c0.7,0,1.3-0.6,1.3-1.3c0-2.2,0-6.5,0-8.7   c0-0.7-0.6-1.3-1.3-1.3c-1.1,0-2.7,0-3.8,0c-0.7,0-1.3,0.6-1.3,1.3C46.5,265.6,46.5,270,46.5,272.1z" style="fill:#142664;"/>
	<path d="M108.4,181.8v-8.6c0-0.7-0.6-1.3-1.3-1.3c-1.1,0-2.7,0-3.8,0c-0.7,0-1.3,0.6-1.3,1.3c0,0,0,1.4,0,2.5   c0,0.6-0.5,1.2-1.2,1.2c-1.1,0-2.5,0-2.5,0c-0.7,0-1.3,0.6-1.3,1.3c0,1.1,0,2.7,0,3.8c0,0.7,0.6,1.3,1.3,1.3h8.7l0,0l0,0l0,0l0,0   l0,0l0,0l0,0l0,0l0,0l0,0l0,0l0,0l0,0l0,0l0,0l0,0l0,0l0,0l0,0l0,0l0,0l0,0l0,0l0,0l0,0l0,0l0,0l0,0l0,0l0,0l0,0l0,0l0,0l0,0l0,0   l0,0l0,0l0,0l0,0l0,0l0,0l0,0l0,0l0,0l0,0l0,0l0,0l0,0l0,0l0,0l0,0l0,0l0,0l0,0l0,0l0,0l0,0l0,0l0,0l0,0L108.4,181.8L108.4,181.8   L108.4,181.8L108.4,181.8L108.4,181.8z" style="fill:#FF2E93;"/>
	<path d="M292.2,291v-8.7c0-0.7-0.6-1.3-1.3-1.3c-1.1,0-2.7,0-3.8,0c-0.7,0-1.3,0.6-1.3,1.3c0,0,0,1.4,0,2.5   c0,0.6-0.5,1.2-1.2,1.2c-1.1,0-2.5,0-2.5,0c-0.7,0-1.3,0.6-1.3,1.3c0,1.1,0,2.7,0,3.8c0,0.7,0.6,1.3,1.3,1.3h8.7l0,0l0,0l0,0l0,0   l0,0l0,0l0,0l0,0l0,0l0,0l0,0l0,0l0,0l0,0l0,0l0,0l0,0l0,0l0,0l0,0l0,0l0,0l0,0l0,0l0,0l0,0l0,0l0,0l0,0l0,0l0,0l0,0l0,0l0,0l0,0   l0,0l0,0l0,0l0,0l0,0l0,0l0,0l0,0l0,0l0,0l0,0l0,0l0,0l0,0l0,0l0,0l0,0l0,0l0,0l0,0l0,0l0,0l0,0l0,0l0,0L292.2,291L292.2,291   L292.2,291L292.2,291L292.2,291z" style="fill:#00E6B3;"/>
	<path d="M127.2,270.3h8.7c0.7,0,1.3-0.6,1.3-1.3c0-1.1,0-2.7,0-3.8c0-0.7-0.6-1.3-1.3-1.3c0,0-1.4,0-2.5,0   c-0.6,0-1.2-0.5-1.2-1.2c0-1.1,0-2.5,0-2.5c0-0.7-0.6-1.3-1.3-1.3c-1.1,0-2.7,0-3.8,0c-0.7,0-1.3,0.6-1.3,1.3v8.7l0,0l0,0l0,0l0,0   l0,0l0,0l0,0l0,0l0,0l0,0l0,0l0,0l0,0l0,0l0,0l0,0l0,0l0,0l0,0l0,0l0,0l0,0l0,0l0,0l0,0l0,0l0,0l0,0l0,0l0,0l0,0l0,0l0,0l0,0l0,0   l0,0l0,0l0,0l0,0l0,0l0,0l0,0l0,0l0,0l0,0l0,0l0,0l0,0l0,0l0,0l0,0l0,0l0,0l0,0l0,0l0,0l0,0l0,0l0,0l0,0L127.2,270.3L127.2,270.3   L127.2,270.3L127.2,270.3L127.2,270.3z" style="fill:#142664;"/>
	<path d="M365.3,319.9c0-1.1-0.4-2.1-1.2-2.8c-0.8-0.8-1.8-1.2-2.8-1.2c-1.2,0-2.6,0-3.9,0c-1.1,0-2.1,0.4-2.8,1.2   c-0.8,0.8-1.2,1.8-1.2,2.8c0,6.6,0,19,0,19h11.9V319.9L365.3,319.9z" style="fill:#FF2E93;"/>
	<g>
		<path d="M366.8,395.6c0-0.5-0.2-1-0.6-1.3c-0.4-0.4-0.8-0.6-1.3-0.6h-5.4c-0.5,0-1,0.2-1.3,0.6    c-0.4,0.4-0.6,0.8-0.6,1.3v5.4c0,0.5,0.2,1,0.6,1.3c0.4,0.4,0.8,0.6,1.3,0.6h5.4c0.5,0,1-0.2,1.3-0.6c0.3-0.4,0.6-0.8,0.6-1.3    V395.6z" style="fill:#FFFFFF;"/>
		<path d="M373.1,388.3c0-0.5-0.2-1-0.6-1.3c-0.4-0.3-0.8-0.6-1.3-0.6c-0.1,0-0.2,0-0.3,0c-0.5,0-1,0.2-1.3,0.6    c-0.3,0.4-0.6,0.8-0.6,1.3c0,1.6,0,3.8,0,5.4c0,0.5,0.2,1,0.6,1.3c0.4,0.3,0.8,0.6,1.3,0.6c0.1,0,0.2,0,0.3,0c0.5,0,1-0.2,1.3-0.6    c0.3-0.4,0.6-0.8,0.6-1.3C373.1,392.1,373.1,389.9,373.1,388.3z" style="fill:#FFFFFF;"/>
		<path d="M414,395.6c0-0.5-0.2-1-0.6-1.3c-0.4-0.4-0.8-0.6-1.3-0.6c-0.1,0-0.2,0-0.3,0c-0.5,0-1,0.2-1.3,0.6    c-0.4,0.4-0.6,0.8-0.6,1.3c0,1.6,0,3.8,0,5.4c0,0.5,0.2,1,0.6,1.3c0.4,0.4,0.8,0.6,1.3,0.6c0.1,0,0.2,0,0.3,0c0.5,0,1-0.2,1.3-0.6    c0.4-0.4,0.6-0.8,0.6-1.3C414,399.5,414,397.2,414,395.6z" style="fill:#FFFFFF;"/>
		<path d="M422.5,395.6c0-0.5-0.2-1-0.6-1.3c-0.4-0.4-0.8-0.6-1.3-0.6c-0.8,0-1.6,0-2.4,0c-0.5,0-1,0.2-1.3,0.6    c-0.4,0.4-0.6,0.8-0.6,1.3c0,1.6,0,3.8,0,5.4c0,0.5,0.2,1,0.6,1.3s0.8,0.6,1.3,0.6c0.8,0,1.6,0,2.4,0c0.5,0,1-0.2,1.3-0.6    c0.3-0.4,0.6-0.8,0.6-1.3C422.5,399.5,422.5,397.2,422.5,395.6z" style="fill:#FFFFFF;"/>
		<path d="M407.7,388.3c0-0.5-0.2-1-0.6-1.3c-0.4-0.3-0.8-0.6-1.3-0.6c-1.5,0-3.7,0-5.2,0c-0.5,0-1,0.2-1.3,0.6    c-0.3,0.4-0.6,0.8-0.6,1.3c0,1.6,0,3.8,0,5.4c0,0.5,0.2,1,0.6,1.3c0.4,0.3,0.8,0.6,1.3,0.6h5.2c0.5,0,1-0.2,1.3-0.6    c0.3-0.4,0.6-0.8,0.6-1.3V388.3z" style="fill:#FFFFFF;"/>
		<path d="M396.5,395.6c0-0.5-0.2-1-0.6-1.3c-0.4-0.4-0.8-0.6-1.3-0.6c-4,0-13.3,0-17.3,0c-0.5,0-1,0.2-1.3,0.6    c-0.4,0.4-0.6,0.8-0.6,1.3c0,1.6,0,3.8,0,5.4c0,0.5,0.2,1,0.6,1.3s0.8,0.6,1.3,0.6c4,0,13.3,0,17.3,0c0.5,0,1-0.2,1.3-0.6    c0.4-0.4,0.6-0.8,0.6-1.3C396.5,399.5,396.5,397.2,396.5,395.6z" style="fill:#FFFFFF;"/>
	</g>
	<path d="M454.9,394.2v11.4c0,1.2-0.9,2.1-2.1,2.1c-1.2,0-2.1-0.9-2.1-2.1v-13.5c0-1.2,0.9-2.1,2.1-2.1h19.6   c1.2,0,2.1,0.9,2.1,2.1c0,1.2-0.9,2.1-2.1,2.1H454.9z" style="fill:#00E6B3;"/>
	<g>
		<path d="M258,368.2h-14.8c0,0-7,7-11.3,11.4c-0.5,0.5-0.7,1.4-0.4,2.1c0.3,0.7,1,1.2,1.8,1.2c2.7,0,6,0,8.1,0    c1.3,0,2.6-0.5,3.5-1.5C248.6,377.7,258,368.2,258,368.2z" style="fill:#142664;"/>
		<path d="M247.2,368.4l-6.1,6.1c-0.8,0.8-0.8,2.2,0,3c0.8,0.8,2.2,0.8,3,0l6.1-6.1c0.8-0.8,0.8-2.2,0-3    C249.4,367.6,248.1,367.6,247.2,368.4L247.2,368.4z" style="fill:#00E6B3;"/>
	</g>
	<g>
		<path d="M279.5,368.2h-14.8c0,0-7,7-11.3,11.4c-0.5,0.5-0.7,1.4-0.4,2.1c0.3,0.7,1,1.2,1.8,1.2c2.7,0,6,0,8.1,0    c1.3,0,2.6-0.5,3.5-1.5C270.1,377.7,279.5,368.2,279.5,368.2z" style="fill:#142664;"/>
		<path d="M268.7,368.4l-6.1,6.1c-0.8,0.8-0.8,2.2,0,3c0.8,0.8,2.2,0.8,3,0l6.1-6.1c0.8-0.8,0.8-2.2,0-3    C270.9,367.6,269.6,367.6,268.7,368.4L268.7,368.4z" style="fill:#00E6B3;"/>
	</g>
	<g>
		<path d="M301,368.2h-14.8c0,0-7,7-11.3,11.4c-0.5,0.5-0.7,1.4-0.4,2.1c0.3,0.7,1,1.2,1.8,1.2c2.7,0,6,0,8.1,0    c1.3,0,2.6-0.5,3.5-1.5C291.6,377.7,301,368.2,301,368.2z" style="fill:#142664;"/>
		<path d="M290.2,368.4l-6.1,6.1c-0.8,0.8-0.8,2.2,0,3c0.8,0.8,2.2,0.8,3,0l6.1-6.1c0.8-0.8,0.8-2.2,0-3    C292.4,367.6,291,367.6,290.2,368.4L290.2,368.4z" style="fill:#00E6B3;"/>
	</g>
	<circle cx="54.3" cy="399" r="3.2" style="fill:#142664;"/>
	<circle cx="66.2" cy="399" r="3.2" style="fill:#142664;"/>
	<circle cx="312.4" cy="375.2" r="3.2" style="fill:#142664;"/>
	<circle cx="466.9" cy="382.6" r="3.2" style="fill:#00E6B3;"/>
	<path d="M139,355c0.5,0.7,0.5,1.6,0.1,2.3c-0.4,0.7-1.1,1.2-2,1.2h-11.2c-0.8,0-1.6-0.5-2-1.2   c-0.4-0.7-0.3-1.6,0.1-2.3c1.7-2.5,4-5.8,5.6-8.1c0.4-0.6,1.1-1,1.8-1s1.4,0.4,1.8,1C134.9,349.2,137.3,352.5,139,355z" style="fill:#142664;"/>
	<path d="M243.3,355c0.5,0.7,0.5,1.6,0.1,2.3c-0.4,0.7-1.1,1.2-2,1.2h-11.3c-0.8,0-1.6-0.5-2-1.2   c-0.4-0.7-0.3-1.6,0.1-2.3c1.7-2.5,4-5.8,5.6-8.1c0.4-0.6,1.1-1,1.8-1c0.7,0,1.4,0.4,1.8,1C239.3,349.2,241.6,352.5,243.3,355z" style="fill:#142664;"/>
	<path d="M350.4,355c0.5,0.7,0.5,1.6,0.1,2.3c-0.4,0.7-1.1,1.2-2,1.2h-11.3c-0.8,0-1.6-0.5-2-1.2   c-0.4-0.7-0.3-1.6,0.1-2.3c1.7-2.5,4-5.8,5.6-8.1c0.4-0.6,1.1-1,1.8-1s1.4,0.4,1.8,1C346.4,349.2,348.7,352.5,350.4,355z" style="fill:#142664;"/>
	<path d="M114.1,394.3l6.3-6.3h30.5l6.3,6.3v13.4h-43.1L114.1,394.3L114.1,394.3z" style="fill:#00E6B3;"/>
	<path d="M129,402.9h13.3c1.8,0,3.2-1.4,3.2-3.2s-1.4-3.2-3.2-3.2H129c-1.8,0-3.2,1.4-3.2,3.2S127.3,402.9,129,402.9z" style="fill:#142664;"/>
	<path d="M124.4,385.9l-7.7-7.7h-17c-1.2,0-2.1-0.9-2.1-2.1v-5.7c0-1.2,0.9-2.1,2.1-2.1s2.1,0.9,2.1,2.1v3.6h15.8   c0.6,0,1.1,0.2,1.5,0.6l11.3,11.3h15.3v-15.5c0-1.2,0.9-2.1,2.1-2.1s2.1,0.9,2.1,2.1v15.5h1c0.6,0,1.1,0.2,1.5,0.6l6.3,6.3   c0.4,0.4,0.6,0.9,0.6,1.5v11.3c0,1.2-0.9,2.1-2.1,2.1s-2.1-0.9-2.1-2.1v-10.4l-5.1-5.1h-28.7l-5.1,5.1v10.4c0,1.2-0.9,2.1-2.1,2.1   s-2.1-0.9-2.1-2.1v-11.3c0-0.6,0.2-1.1,0.6-1.5l6.3-6.3c0.4-0.4,0.9-0.6,1.5-0.6L124.4,385.9L124.4,385.9z M309.9,394.4v-6.5   c0-0.6,0.2-1.1,0.6-1.5l17.7-17.7c0.8-0.8,2.2-0.8,3,0s0.8,2.2,0,3l-17.1,17.1v16.7c0,1.2-0.9,2.1-2.1,2.1c-1.2,0-2.1-0.9-2.1-2.1   v-6.9h-32v6.9c0,1.2-0.9,2.1-2.1,2.1c-1.2,0-2.1-0.9-2.1-2.1v-9.1c0-1.2,0.9-2.1,2.1-2.1h34.1V394.4z M377.4,376.3l9.1-7.3   c0.9-0.7,2.2-0.6,3,0.3c0.7,0.9,0.6,2.2-0.3,3l-9.6,7.8c-0.4,0.3-0.8,0.5-1.3,0.5h-19.8L343.9,395v10.6c0,1.2-0.9,2.1-2.1,2.1   c-1.2,0-2.1-0.9-2.1-2.1v-11.5c0-0.6,0.2-1.1,0.6-1.5l15.7-15.7c0.4-0.4,0.9-0.6,1.5-0.6H377.4L377.4,376.3z M202,385.9l5.1-5.1   c0.4-0.4,0.9-0.6,1.5-0.6h11.6v-9.8c0-1.2,0.9-2.1,2.1-2.1s2.1,0.9,2.1,2.1v11.8c0,1.2-0.9,2.1-2.1,2.1h-12.8L197.9,396v9.6   c0,1.2-0.9,2.1-2.1,2.1s-2.1-0.9-2.1-2.1v-10.5c0-0.6,0.2-1.1,0.6-1.5l4.7-4.7l-4.5-4.5L180,398.9c-0.6,0.6-1.5,0.8-2.3,0.5   s-1.3-1.1-1.3-2v-26.9c0-1.2,0.9-2.1,2.1-2.1s2.1,0.9,2.1,2.1v21.7l12.3-12.3c0.8-0.8,2.2-0.8,3,0L202,385.9L202,385.9z    M54.3,382.8v6.9c0,1.2-0.9,2.1-2.1,2.1H25.8v13.8c0,1.2-0.9,2.1-2.1,2.1s-2.1-0.9-2.1-2.1v-15.9c0-1.2,0.9-2.1,2.1-2.1h26.4v-17.2   c0-1.2,0.9-2.1,2.1-2.1s2.1,0.9,2.1,2.1v8.2h6.8v-8.2c0-1.2,0.9-2.1,2.1-2.1s2.1,0.9,2.1,2.1v10.3c0,1.2-0.9,2.1-2.1,2.1   L54.3,382.8L54.3,382.8z M429.9,374.3l16.7,16.7c0.8,0.8,0.8,2.2,0,3c-0.8,0.8-2.2,0.8-3,0l-17.3-17.3c-0.4-0.4-0.6-0.9-0.6-1.5   v-5.5c0-1.2,0.9-2.1,2.1-2.1s2.1,0.9,2.1,2.1V374.3z" style="fill:#142664;"/>
	<path d="M227.6,304.3c-2.2,0-4,1.8-4,4V339h16.7v-19.4c0-1.6-1.3-2.8-2.8-2.8l0,0c-1.6,0-2.8-1.3-2.8-2.8   c0-1.7,0-3.8,0-5.6c0-2.2-1.8-4-4-4C229.7,304.3,228.6,304.3,227.6,304.3L227.6,304.3z" style="fill:#00E6B3;"/>
	<path d="M140.4,268.4c0-0.7-0.6-1.3-1.3-1.3h-3.8c-0.7,0-1.3,0.6-1.3,1.3v3.8c0,0.7,0.6,1.3,1.3,1.3h3.8   c0.7,0,1.3-0.6,1.3-1.3V268.4z" style="fill:#00E6B3;"/>
</g>

            </g>
        </g>
    </g>
    
    <!-- ITEM 8 -->
    <g>
        <defs>
            <clipPath id="clip-path-id-viewbox-item-8">
                <rect x="0.0" y="0.0" width="678.3" height="4.2"/>
            </clipPath>
        </defs>
        <g transform="translate(57.0 615.0) rotate(0.0 340.5 2.0) scale(1.003980539584255 0.9523809523809523)">
            <g clip-path="url(#clip-path-id-viewbox-item-8)" transform="translate(-0.0 -0.0)">
                

<path d="M676.1,0H2.1C0.9,0,0,0.9,0,2.1c0,1.2,0.9,2.1,2.1,2.1h674.1c1.2,0,2.1-0.9,2.1-2.1S677.3,0,676.1,0z" style="fill:#142664;"/>

            </g>
        </g>
    </g>
    
    <!-- ITEM 9 -->
    <g>
        <defs>
            <clipPath id="clip-path-id-viewbox-item-9">
                <rect x="0.0" y="0.0" width="48.3" height="33.5"/>
            </clipPath>
        </defs>
        <g transform="translate(142.0 439.0) rotate(0.0 24.0 16.5) scale(0.9937888198757765 0.9850746268656716)">
            <g clip-path="url(#clip-path-id-viewbox-item-9)" transform="translate(-0.0 -0.0)">
                

<g>
	<path d="M2.1,4.2h5.4c1.2,0,2.1-0.9,2.1-2.1S8.7,0,7.5,0H2.1C0.9,0,0,0.9,0,2.1S0.9,4.2,2.1,4.2z" style="fill:#FF2E93;"/>
	<path d="M14.3,4.2h24.3c1.2,0,2.1-0.9,2.1-2.1S39.8,0,38.6,0H14.3c-1.2,0-2.1,0.9-2.1,2.1C12.1,3.3,13.1,4.2,14.3,4.2   L14.3,4.2z" style="fill:#00E6B3;"/>
	<path d="M8.6,11.6h10.9c1.2,0,2.1-0.9,2.1-2.1s-0.9-2.1-2.1-2.1H8.6c-1.2,0-2.1,0.9-2.1,2.1   C6.5,10.6,7.5,11.6,8.6,11.6z" style="fill:#FFFFFF;"/>
	<path d="M12,26.2c1.2,0,2.1-0.9,2.1-2.1S13.2,22,12,22H4.371c-1.2,0-2.1,0.9-2.1,2.1c0,1.1,1,2.1,2.1,2.1" style="fill:#FFFFFF;"/>
	<path d="M26.2,11.6h3.4c1.2,0,2.1-0.9,2.1-2.1s-0.9-2.1-2.1-2.1h-3.4c-1.2,0-2.1,0.9-2.1,2.1   C24.1,10.6,25,11.6,26.2,11.6z" style="fill:#FFFFFF;"/>
	<path d="M36.4,11.6h9.8c1.2,0,2.1-0.9,2.1-2.1s-0.9-2.1-2.1-2.1h-9.8c-1.2,0-2.1,0.9-2.1,2.1   C34.3,10.6,35.2,11.6,36.4,11.6z" style="fill:#00E6B3;"/>
	<path d="M8.6,18.9h3.5c1.2,0,2.1-0.9,2.1-2.1s-0.9-2.1-2.1-2.1H8.6c-1.2,0-2.1,0.9-2.1,2.1C6.5,17.9,7.5,18.9,8.6,18.9   L8.6,18.9z" style="fill:#00E6B3;"/>
	<path d="M18.5,18.9h21.1c1.2,0,2.1-0.9,2.1-2.1s-0.9-2.1-2.1-2.1H18.5c-1.2,0-2.1,0.9-2.1,2.1   C16.4,17.9,17.3,18.9,18.5,18.9z" style="fill:#FF2E93;"/>
	<path d="M10.35,33.5h21.1c1.2,0,2.1-0.9,2.1-2.1s-0.9-2.1-2.1-2.1h-21.1c-1.2,0-2.1,0.9-2.1,2.1   C8.25,32.5,9.15,33.5,10.35,33.5z" style="fill:#FF2E93;"/>
	<path d="M18.1,26.2h16.8c1.2,0,2.1-0.9,2.1-2.1S36.1,22,34.9,22H18.1c-1.2,0-2.1,0.9-2.1,2.1   C15.9,25.3,16.9,26.2,18.1,26.2z" style="fill:#00E6B3;"/>
	<path d="M41,26.2h3.9c1.2,0,2.1-0.9,2.1-2.1S46.1,22,44.9,22H41c-1.2,0-2.1,0.9-2.1,2.1S39.8,26.2,41,26.2z" style="fill:#FFFFFF;"/>
	<path d="M37.55,33.5h3.9c1.2,0,2.1-0.9,2.1-2.1s-0.9-2.1-2.1-2.1h-3.9c-1.2,0-2.1,0.9-2.1,2.1S36.35,33.5,37.55,33.5z" style="fill:#00E6B3;"/>
</g>

            </g>
        </g>
    </g>
    
    <!-- ITEM 10 -->
    <g>
        <defs>
            <clipPath id="clip-path-id-viewbox-item-10">
                <rect x="0.0" y="0.0" width="14.0" height="23.6"/>
            </clipPath>
        </defs>
        <g transform="translate(204.0 461.0) rotate(0.0 7.0 11.5) scale(1.0 0.9745762711864406)">
            <g clip-path="url(#clip-path-id-viewbox-item-10)" transform="translate(-0.0 -0.0)">
                

<g>
	<path d="M14,2.6C14,1.2,12.9,0,11.4,0H2.5C1.8,0,1.2,0.3,0.7,0.7C0.2,1.2,0,1.8,0,2.5V21c0,1.4,1.1,2.6,2.6,2.6h8.9   c0.7,0,1.3-0.3,1.8-0.7c0.5-0.5,0.7-1.1,0.7-1.8V2.6z" style="fill:#FFFFFF;"/>
	<path d="M8.9,3.9c0-0.3-0.1-0.6-0.3-0.8C8.4,2.9,8.1,2.8,7.8,2.8c-0.9,0-2.3,0-3.3,0c-0.3,0-0.6,0.1-0.8,0.3   C3.5,3.3,3.4,3.6,3.4,3.9c0,0.7,0,1.6,0,2.3c0,0.3,0.1,0.6,0.3,0.8c0.2,0.2,0.5,0.3,0.8,0.3c0.9,0,2.3,0,3.3,0   c0.3,0,0.6-0.1,0.8-0.3c0.2-0.2,0.3-0.5,0.3-0.8C8.9,5.4,8.9,4.6,8.9,3.9z" style="fill:#FF2E93;"/>
	<path d="M10.5,10.7c0-0.3-0.1-0.6-0.3-0.8C10,9.7,9.7,9.6,9.4,9.6c-1.3,0-3.5,0-4.8,0C4.3,9.6,4,9.7,3.8,9.9   c-0.2,0.2-0.3,0.5-0.3,0.8c0,0.7,0,1.6,0,2.3c0,0.3,0.1,0.6,0.3,0.8C4,14,4.3,14.1,4.6,14.1c1.3,0,3.5,0,4.8,0   c0.3,0,0.6-0.1,0.8-0.3c0.2-0.2,0.3-0.5,0.3-0.8C10.5,12.3,10.5,11.4,10.5,10.7z" style="fill:#FF2E93;"/>
	<path d="M7,17.6c0-0.6-0.5-1.1-1.1-1.1c-0.4,0-0.9,0-1.3,0c-0.6,0-1.1,0.5-1.1,1.1c0,0.7,0,1.6,0,2.3   C3.5,20.5,4,21,4.6,21c0.4,0,0.9,0,1.3,0C6.5,21,7,20.5,7,19.9C7,19.2,7,18.3,7,17.6z" style="fill:#FF2E93;"/>
</g>

            </g>
        </g>
    </g>
    
    <!-- ITEM 11 -->
    <g>
        <defs>
            <clipPath id="clip-path-id-crop-item-11">
                
          <rect transform="scale(1.042857142857143 1.042857142857143)" x="0.0" y="0.0" width="17.0" height="15.0"/>
        
            </clipPath>
            
            <clipPath id="clip-path-id-viewbox-item-11">
                <rect x="0.0" y="0.0" width="14.6" height="14.6"/>
            </clipPath>
        </defs>
        <g clip-path="url(#clip-path-id-crop-item-11)" transform="translate(207.0 417.0) rotate(0.0 7.0 7.0) scale(0.9589041095890412 0.9589041095890412)">
            <g clip-path="url(#clip-path-id-viewbox-item-11)" transform="translate(-0.0 -0.0)">
                

<g>
	<circle cx="7.3" cy="7.3" r="7.3" style="fill:#142664;"/>
	<path d="M7.2,10.4l3.1-3.1c0.8-0.8,0.8-2.2,0-3s-2.2-0.8-3,0L4.2,7.4c-0.8,0.8-0.8,2.2,0,3C5.1,11.2,6.4,11.2,7.2,10.4   L7.2,10.4z" style="fill:#FF2E93;"/>
</g>

            </g>
        </g>
    </g>
    
    <!-- ITEM 12 -->
    <g>
        <defs>
            <clipPath id="clip-path-id-viewbox-item-12">
                <rect x="0.0" y="0.0" width="38.35" height="38.35"/>
            </clipPath>
        </defs>
        <g transform="translate(151.0 420.0) rotate(0.0 5.5 5.5) scale(0.28683181225554105 0.28683181225554105)">
            <g clip-path="url(#clip-path-id-viewbox-item-12)" transform="translate(-0.0 -0.0)">
                

<path d="M37.525,20.725c1.1-1.1,1.1-2.9,0-4c-3.8-3.8-12.1-12.1-15.9-15.9c-1.1-1.1-2.9-1.1-4,0  c-4,4-12.8,12.8-16.8,16.8c-1.1,1.1-1.1,2.9,0,4c3.8,3.8,12.1,12.1,15.9,15.9c1.1,1.1,2.9,1.1,4,0  C24.725,33.625,33.625,24.725,37.525,20.725L37.525,20.725z" style="fill:#ff2e93;"/>

            </g>
        </g>
    </g>
    
    <!-- ITEM 13 -->
    <g>
        <defs>
            <clipPath id="clip-path-id-viewbox-item-13">
                <rect x="0.0" y="0.0" width="14.1" height="4.4"/>
            </clipPath>
        </defs>
        <g transform="translate(132.0 420.0) rotate(0.0 7.0 2.0) scale(0.9929078014184397 0.9090909090909091)">
            <g clip-path="url(#clip-path-id-viewbox-item-13)" transform="translate(-0.0 -0.0)">
                

<path d="M14.1,1.1C14.1,0.5,13.6,0,13,0C10.4,0,3.7,0,1.1,0C0.5,0,0,0.5,0,1.1c0,0.7,0,1.5,0,2.2c0,0.6,0.5,1.1,1.1,1.1  c2.6,0,9.3,0,11.9,0c0.6,0,1.1-0.5,1.1-1.1S14.1,1.8,14.1,1.1z" style="fill:#142664;"/>

            </g>
        </g>
    </g>
    
    <!-- ITEM 14 -->
    <g>
        <defs>
            <clipPath id="clip-path-id-viewbox-item-14">
                <rect x="0.0" y="0.0" width="49.237" height="49.238"/>
            </clipPath>
        </defs>
        <g transform="translate(191.0 421.0) rotate(0.0 11.5 11.5) scale(0.46712837906452465 0.4671188919127503)">
            <g clip-path="url(#clip-path-id-viewbox-item-14)" transform="translate(-0.0 -0.0)">
                

<circle cx="24.619" cy="24.619" r="24.619" style="fill:#ffffff;"/>

            </g>
        </g>
    </g>
    
    <!-- ITEM 15 -->
    <g>
        <defs>
            <clipPath id="clip-path-id-crop-item-15">
                
          <rect transform="scale(1.132923076923077 1.0409285714285714)" x="0.0" y="0.0" width="15.0" height="15.0"/>
        
            </clipPath>
            
            <clipPath id="clip-path-id-viewbox-item-15">
                <rect x="0.0" y="0.0" width="14.728" height="14.573"/>
            </clipPath>
        </defs>
        <g clip-path="url(#clip-path-id-crop-item-15)" transform="translate(196.0 425.0) rotate(0.0 6.5 7.0) scale(0.8826724606192287 0.9606807109037261)">
            <g clip-path="url(#clip-path-id-viewbox-item-15)" transform="translate(-0.0 -0.0)">
                
<g>
	<path style="fill:#FF2E93;" d="M7.328,0c4.1,0,7.4,3.3,7.4,7.4c0,2-0.8,3.9-2.2,5.2l-3-3c0.6-0.6,0.9-1.4,0.9-2.2   c0-1.8-1.4-3.2-3.2-3.2V0H7.328z"/>
	<path style="fill:#00E6B3;" d="M2.028,2.2l3,2.9c-0.6,0.58-0.9,1.353-0.9,2.223c0,1.643,1.4,3.093,3.2,3.093   c0.9,0,1.719-0.392,2.273-0.893l3.055,2.953c-1.3,1.257-3.228,2.096-5.228,2.096c-4.1,0-7.4-3.19-7.4-7.153   C-0.172,5.293,0.728,3.457,2.028,2.2L2.028,2.2z"/>
	<path style="fill:#142664;" d="M7.228,4.2c-0.914,0.04-1.85,0.55-2.25,0.95L2.028,2.2c1.3-1.3,3.2-2.2,5.2-2.2V4.2z"/>
</g>

            </g>
        </g>
    </g>
    
    <!-- ITEM 16 -->
    <g>
        <defs>
            <clipPath id="clip-path-id-viewbox-item-16">
                <rect x="0.0" y="0.0" width="49.237" height="49.238"/>
            </clipPath>
        </defs>
        <g transform="translate(162.0 484.0) rotate(0.0 2.0 2.0) scale(0.08123971809817819 0.08123806815873919)">
            <g clip-path="url(#clip-path-id-viewbox-item-16)" transform="translate(-0.0 -0.0)">
                

<circle cx="24.619" cy="24.619" r="24.619" style="fill:#142664;"/>

            </g>
        </g>
    </g>
    
    <!-- ITEM 17 -->
    <g>
        <defs>
            <clipPath id="clip-path-id-viewbox-item-17">
                <rect x="0.0" y="0.0" width="49.237" height="49.238"/>
            </clipPath>
        </defs>
        <g transform="translate(143.0 485.0) rotate(0.0 2.0 2.0) scale(0.08123971809817819 0.08123806815873919)">
            <g clip-path="url(#clip-path-id-viewbox-item-17)" transform="translate(-0.0 -0.0)">
                

<circle cx="24.619" cy="24.619" r="24.619" style="fill:#142664;"/>

            </g>
        </g>
    </g>
    
    <!-- ITEM 18 -->
    <g>
        <defs>
            <clipPath id="clip-path-id-viewbox-item-18">
                <rect x="0.0" y="0.0" width="49.237" height="49.238"/>
            </clipPath>
        </defs>
        <g transform="translate(153.0 485.0) rotate(0.0 2.0 2.0) scale(0.08123971809817819 0.08123806815873919)">
            <g clip-path="url(#clip-path-id-viewbox-item-18)" transform="translate(-0.0 -0.0)">
                

<circle cx="24.619" cy="24.619" r="24.619" style="fill:#142664;"/>

            </g>
        </g>
    </g>
    
</svg>